<?xml version="1.0" encoding="UTF-8"?>
<svg version="1.1" xmlns="http://www.w3.org/2000/svg" width="1024" height="640">
<path d="M0 0 C337.92 0 675.84 0 1024 0 C1024 211.2 1024 422.4 1024 640 C686.08 640 348.16 640 0 640 C0 428.8 0 217.6 0 0 Z " fill="#FEFEFE" transform="translate(0,0)"/>
<path d="M0 0 C3.13173193 0.69594043 3.91919936 1.10961487 5.8125 3.625 C9.31145134 18.92993682 0.13069546 37.05958774 -6.1875 50.625 C-6.8475 50.625 -7.5075 50.625 -8.1875 50.625 C-8.5175 52.605 -8.8475 54.585 -9.1875 56.625 C-9.8475 56.625 -10.5075 56.625 -11.1875 56.625 C-11.39375 57.57375 -11.6 58.5225 -11.8125 59.5 C-13.04921634 63.92329202 -15.40122533 67.53854307 -17.84765625 71.390625 C-19.32123524 73.66507331 -19.32123524 73.66507331 -20.1875 76.625 C-20.8475 76.625 -21.5075 76.625 -22.1875 76.625 C-22.1875 77.615 -22.1875 78.605 -22.1875 79.625 C-22.8475 79.625 -23.5075 79.625 -24.1875 79.625 C-27.67946555 92.11142226 -30.77936284 104.69156652 -33.6784668 117.32739258 C-34.48041391 120.78239183 -35.33268837 124.2046443 -36.328125 127.609375 C-38.34935453 134.58404027 -39.6150065 140.47348497 -38.9375 147.74609375 C-39.24097781 151.24083037 -40.51006898 153.40480787 -42.14501953 156.4621582 C-43.92271264 160.150351 -44.73934594 164.01974388 -45.625 168 C-45.83326416 168.90355225 -46.04152832 169.80710449 -46.25610352 170.73803711 C-48.11228936 178.9469371 -49.69129598 187.20712943 -51.24194336 195.47827148 C-52.75907206 203.53724502 -54.43797192 211.55103333 -56.1875 219.5625 C-58.26609916 229.14472803 -60.23979691 238.74061814 -62.0625 248.375 C-62.27777344 249.48738037 -62.49304688 250.59976074 -62.71484375 251.74584961 C-65.041521 262.04493551 -65.041521 262.04493551 -62.1875 271.625 C-62.375 273.375 -62.375 273.375 -63.1875 275.625 C-63.579375 276.841875 -63.97125 278.05875 -64.375 279.3125 C-66.1875 282.625 -66.1875 282.625 -69.25 283.6875 C-72.1875 283.625 -72.1875 283.625 -74.1875 281.625 C-75.3740604 271.61071014 -73.28394803 261.5669109 -71.5 251.75 C-71.22645514 250.19986474 -70.95334783 248.6496522 -70.68066406 247.09936523 C-68.78489864 236.4330186 -66.60664526 225.84375635 -64.21484375 215.27734375 C-63.15173649 210.55737512 -62.32203766 205.81939014 -61.578125 201.0390625 C-60.78777353 196.1546904 -59.64019437 191.36441678 -58.39453125 186.578125 C-57.98267578 184.99257813 -57.98267578 184.99257813 -57.5625 183.375 C-57.30210937 182.40046875 -57.04171875 181.4259375 -56.7734375 180.421875 C-56.20936513 177.72936954 -56.07747934 175.36551459 -56.1875 172.625 C-56.92613281 173.41003906 -57.66476562 174.19507813 -58.42578125 175.00390625 C-66.69756121 183.63282052 -75.75019989 192.66201019 -88.25 193.9375 C-91.8010971 193.55972371 -93.41594653 192.88600415 -96.1875 190.625 C-99.51189778 185.8230921 -100.48672916 182.48344422 -101.1875 176.625 C-101.93773437 177.55441406 -102.68796875 178.48382813 -103.4609375 179.44140625 C-118.69001757 197.96244909 -118.69001757 197.96244909 -130.0625 200.1875 C-134.19187381 199.44421272 -135.44149685 197.63771261 -137.98828125 194.44921875 C-139.96831157 191.4372508 -140.31002293 188.90073329 -140.28515625 185.39453125 C-140.28032227 184.19086914 -140.28032227 184.19086914 -140.27539062 182.96289062 C-140.26282227 181.71282227 -140.26282227 181.71282227 -140.25 180.4375 C-140.24548828 179.59251953 -140.24097656 178.74753906 -140.23632812 177.87695312 C-140.22455403 175.79293845 -140.2066189 173.70896023 -140.1875 171.625 C-140.77917969 172.31207031 -141.37085938 172.99914062 -141.98046875 173.70703125 C-143.16576172 175.05861328 -143.16576172 175.05861328 -144.375 176.4375 C-145.15230469 177.33082031 -145.92960938 178.22414063 -146.73046875 179.14453125 C-149.76847035 182.2115122 -152.27484209 184.39694063 -156.64453125 184.91796875 C-157.42183594 184.88316406 -158.19914063 184.84835937 -159 184.8125 C-159.79019531 184.78542969 -160.58039063 184.75835937 -161.39453125 184.73046875 C-161.98621094 184.69566406 -162.57789063 184.66085937 -163.1875 184.625 C-165.56072923 189.90666743 -167.42150194 195.21922021 -169.125 200.75 C-169.38732422 201.59111328 -169.64964844 202.43222656 -169.91992188 203.29882812 C-170.6799816 205.7396096 -171.43493303 208.18189919 -172.1875 210.625 C-172.53941406 211.76710938 -172.89132812 212.90921875 -173.25390625 214.0859375 C-173.87860747 216.11948373 -174.50229816 218.15334065 -175.125 220.1875 C-176.45986012 224.50616509 -177.82310057 228.81559232 -179.1875 233.125 C-181.20161973 239.48731862 -183.1913502 245.85609064 -185.14575195 252.23706055 C-189.33573827 265.86359913 -193.64015648 279.45532193 -197.96118164 293.04077148 C-198.65065368 295.21224383 -199.33784952 297.3844403 -200.02270508 299.55737305 C-203.59954797 310.90190785 -207.26867619 322.19340971 -211.44921875 333.33203125 C-211.76558792 334.18576828 -212.08195709 335.03950531 -212.40791321 335.91911316 C-214.20242435 340.59723905 -216.10153705 344.65777938 -219.1875 348.625 C-221.8125 349.625 -221.8125 349.625 -224.1875 349.625 C-226.79452388 347.01797612 -226.48583259 345.9535242 -226.5 342.3125 C-226.36873618 336.68713358 -225.82119202 331.25450397 -224.99609375 325.69140625 C-224.80089142 324.35218109 -224.80089142 324.35218109 -224.60174561 322.98590088 C-222.63520446 309.6733946 -220.45959238 296.39228425 -218.30065536 283.10989761 C-217.93301168 280.84737839 -217.56599715 278.58475784 -217.1991272 276.32211304 C-212.79541604 249.17064017 -208.38144369 222.01887636 -203.4296875 194.9609375 C-203.21585167 193.7917704 -203.21585167 193.7917704 -202.99769592 192.59898376 C-202.32663801 188.93680488 -201.65025907 185.27574583 -200.96362305 181.61645508 C-200.7294165 180.35470459 -200.49520996 179.0929541 -200.25390625 177.79296875 C-200.04709229 176.69235107 -199.84027832 175.5917334 -199.62719727 174.45776367 C-199.08524548 171.44400285 -199.08524548 171.44400285 -199.1875 167.625 C-199.71859375 168.28886719 -200.2496875 168.95273437 -200.796875 169.63671875 C-202.92708333 172.29947917 -205.05729167 174.96223958 -207.1875 177.625 C-208.17363281 178.92244141 -208.17363281 178.92244141 -209.1796875 180.24609375 C-212.2910546 183.93251898 -215.87246589 186.48624396 -220.1875 188.625 C-223.5 188.8125 -223.5 188.8125 -226.1875 187.625 C-228.8692595 184.9138245 -230.0818863 183.25402276 -230.71875 179.4609375 C-230.59606105 165.87313614 -226.29335127 153.45932883 -217.015625 143.23046875 C-209.9654713 136.67868799 -202.58938955 132.49343186 -192.8125 132.4375 C-191.69101562 132.42332031 -190.56953125 132.40914062 -189.4140625 132.39453125 C-186.23865158 132.62134632 -184.04515282 133.27109332 -181.1875 134.625 C-181.144779 136.29111905 -181.14686168 137.95882885 -181.1875 139.625 C-182.9907804 141.4282804 -185.45912032 140.76068028 -187.86376953 140.81274414 C-198.07684884 141.08636625 -204.65496999 142.70405933 -211.9375 150.25 C-217.67326505 157.26630794 -221.36949867 165.79310119 -221.25 174.875 C-221.23646484 176.21304688 -221.23646484 176.21304688 -221.22265625 177.578125 C-221.21105469 178.25359375 -221.19945312 178.9290625 -221.1875 179.625 C-212.31601478 170.80037122 -204.64464032 161.90735823 -197.7421875 151.46801758 C-197.22269531 150.71157959 -196.70320312 149.9551416 -196.16796875 149.17578125 C-195.71317139 148.49169189 -195.25837402 147.80760254 -194.78979492 147.1027832 C-193.1875 145.625 -193.1875 145.625 -190.5637207 145.34057617 C-188.1875 145.625 -188.1875 145.625 -187.1875 146.625 C-186.71104555 153.46253935 -188.01251067 159.80934415 -189.35079956 166.4987793 C-190.05817248 170.04489096 -190.73669458 173.59649024 -191.4140625 177.1484375 C-191.63155403 178.28783783 -191.63155403 178.28783783 -191.85343933 179.45025635 C-193.59352995 188.64988391 -195.10767846 197.88651681 -196.625 207.125 C-198.8999317 220.9523463 -201.24536141 234.7637057 -203.6875 248.5625 C-206.255015 263.0867955 -208.69835482 277.62871743 -211.0625 292.1875 C-211.21388428 293.11899872 -211.36526855 294.05049744 -211.52124023 295.01022339 C-211.95026606 297.65375709 -212.37791097 300.29750856 -212.8046875 302.94140625 C-212.93040131 303.71876129 -213.05611511 304.49611633 -213.18563843 305.29702759 C-213.89857877 309.73398828 -214.56508697 314.17441618 -215.1875 318.625 C-215.01290253 318.07615143 -214.83830505 317.52730286 -214.65841675 316.96182251 C-212.80988922 311.15181123 -210.95961075 305.34235951 -209.10839844 299.53320312 C-208.42144277 297.37676525 -207.73490613 295.22019383 -207.04882812 293.06347656 C-203.7436267 282.67432005 -200.43253669 272.29063006 -196.9453125 261.9609375 C-194.82208178 255.6623336 -192.90438192 249.33155401 -191.11767578 242.92773438 C-189.55491725 237.37891616 -187.83713878 231.87919753 -186.125 226.375 C-185.74794922 225.15135742 -185.37089844 223.92771484 -184.98242188 222.66699219 C-182.81719839 215.66970884 -180.55561253 208.71386437 -178.19140625 201.78125 C-177.43615818 199.54064074 -176.6824746 197.29951094 -175.92922974 195.05822754 C-175.44411675 193.63033274 -174.95146894 192.20497003 -174.45040894 190.78259277 C-171.45339156 182.27121073 -169.61289788 174.51001625 -169.49658203 165.44134521 C-169.3598709 157.42738768 -166.48023104 149.70955694 -161.1875 143.625 C-158.75 143.0625 -158.75 143.0625 -156.1875 143.625 C-153.8125 145.75 -153.8125 145.75 -152.1875 148.625 C-152.63352031 154.38960213 -154.95360538 159.49249541 -157.10351562 164.79101562 C-158.57122052 168.53313004 -159.55729759 171.58869869 -159.1875 175.625 C-154.68112973 174.24146527 -152.6846978 172.24866 -149.8125 168.5625 C-149.04035156 167.5828125 -148.26820313 166.603125 -147.47265625 165.59375 C-146.71855469 164.6140625 -145.96445312 163.634375 -145.1875 162.625 C-144.50558594 161.7484375 -143.82367187 160.871875 -143.12109375 159.96875 C-141.94091699 158.45102791 -140.76573008 156.92940009 -139.59765625 155.40234375 C-138.1875 153.625 -138.1875 153.625 -136.1875 151.625 C-133.6875 151.375 -133.6875 151.375 -131.1875 151.625 C-129.1875 153.625 -129.1875 153.625 -128.95703125 156.26953125 C-128.97121094 157.31496094 -128.98539063 158.36039063 -129 159.4375 C-129.00644531 160.47519531 -129.01289062 161.51289063 -129.01953125 162.58203125 C-129.1875 165.625 -129.1875 165.625 -129.6953125 167.8984375 C-130.44789049 172.06748063 -130.29097027 176.21125906 -130.25 180.4375 C-130.24548828 181.32115234 -130.24097656 182.20480469 -130.23632812 183.11523438 C-130.22459866 185.28518559 -130.20666495 187.45510172 -130.1875 189.625 C-119.54238146 186.87787264 -111.45701879 175.1875986 -105.1875 166.625 C-104.22650391 165.31402344 -104.22650391 165.31402344 -103.24609375 163.9765625 C-99.26377501 158.17351766 -97.13272519 152.97317562 -95.79296875 146.05859375 C-95.1875 143.625 -95.1875 143.625 -93.1875 141.625 C-90.5625 142 -90.5625 142 -88.1875 142.625 C-88.084375 143.264375 -87.98125 143.90375 -87.875 144.5625 C-87.648125 145.243125 -87.42125 145.92375 -87.1875 146.625 C-86.1975 146.955 -85.2075 147.285 -84.1875 147.625 C-84.54861522 151.32643101 -85.30052546 154.08453184 -87.1875 157.25 C-89.54605882 161.23006801 -90.31271419 164.09313753 -90.3203125 168.6640625 C-90.32224609 169.78167969 -90.32224609 169.78167969 -90.32421875 170.921875 C-90.32035156 171.69015625 -90.31648437 172.4584375 -90.3125 173.25 C-90.31636719 174.02601563 -90.32023438 174.80203125 -90.32421875 175.6015625 C-90.41909425 179.74569379 -90.41909425 179.74569379 -89.1875 183.625 C-79.91516108 183.625 -73.05817333 176.59666588 -66.6875 170.5 C-65.17741305 168.88436934 -63.67809475 167.25863162 -62.1875 165.625 C-61.27742187 164.73425781 -60.36734375 163.84351563 -59.4296875 162.92578125 C-49.8624577 152.91284262 -47.76549127 140.73527428 -45.00683594 127.52783203 C-44.17156268 123.54908402 -43.28743496 119.58447804 -42.3828125 115.62109375 C-42.07825206 114.28459472 -41.77372724 112.94808758 -41.46923828 111.61157227 C-41.31908264 110.95279083 -41.168927 110.2940094 -41.01422119 109.61526489 C-40.56415092 107.63227389 -40.11879678 105.6482876 -39.67529297 103.66381836 C-36.50506911 89.48392915 -33.11762261 75.41268185 -28.92138672 61.49926758 C-27.71867249 57.50117124 -26.6430537 53.50128738 -25.6875 49.4375 C-23.37629434 39.91846651 -19.72630328 30.81382506 -16.03515625 21.7578125 C-14.97180625 19.0822867 -14.0543257 16.36994805 -13.1875 13.625 C-12.5275 13.625 -11.8675 13.625 -11.1875 13.625 C-10.98125 12.779375 -10.775 11.93375 -10.5625 11.0625 C-8.45644764 5.7973691 -5.82619489 1.14239115 0 0 Z " fill="#090909" transform="translate(845.1875,240.375)"/>
<path d="M0 0 C2.9375 0.9375 2.9375 0.9375 4.1328125 2.62109375 C7.33843948 11.84894228 2.85955469 24.85780803 -0.4597168 33.63012695 C-1.97658203 37.65094232 -3.32353133 41.70868461 -4.62109375 45.8046875 C-5.09431424 47.28257988 -5.56762432 48.76044358 -6.04101562 50.23828125 C-6.77063718 52.52382504 -7.4991168 54.80972117 -8.22583008 57.09619141 C-11.54789528 67.53568293 -15.02160836 77.75366618 -19.6875 87.6875 C-21.3911761 91.38316661 -22.90037325 95.02852819 -24.0625 98.9375 C-24.7225 98.9375 -25.3825 98.9375 -26.0625 98.9375 C-26.16933105 99.65639404 -26.27616211 100.37528809 -26.38623047 101.1159668 C-27.1235557 104.19223671 -28.30829142 106.34489017 -29.8828125 109.08203125 C-34.04589361 117.24062759 -35.37544281 125.68625095 -36.9375 134.625 C-37.27081078 136.45827113 -37.60514617 138.29135622 -37.94042969 140.12426758 C-39.01544013 146.05618514 -40.04381521 151.9956831 -41.0625 157.9375 C-41.23906128 158.96391602 -41.41562256 159.99033203 -41.59753418 161.04785156 C-46.54855364 189.89380025 -51.29934381 218.78640813 -54.0625 247.9375 C-52.7425 247.9375 -51.4225 247.9375 -50.0625 247.9375 C-48.90412374 251.99181692 -49.22558743 254.15562119 -51.0625 257.9375 C-51.7225 257.9375 -52.3825 257.9375 -53.0625 257.9375 C-53.0625 258.5975 -53.0625 259.2575 -53.0625 259.9375 C-55.0425 260.2675 -57.0225 260.5975 -59.0625 260.9375 C-63.20290601 256.46849034 -62.50197954 251.78624659 -62.33984375 246.04296875 C-60.73134637 212.26452375 -54.70809646 177.83577418 -47.41040039 144.85888672 C-46.9734149 142.77093839 -46.9734149 142.77093839 -47.0625 139.9375 C-47.3925 140.9275 -47.7225 141.9175 -48.0625 142.9375 C-48.7225 142.9375 -49.3825 142.9375 -50.0625 142.9375 C-50.15789062 143.49566406 -50.25328125 144.05382812 -50.3515625 144.62890625 C-51.23689268 147.50379712 -52.66534184 149.44856404 -54.4375 151.875 C-56.31694294 154.46223315 -58.08218412 156.97211525 -59.6640625 159.75390625 C-60.12554687 160.47449219 -60.58703125 161.19507813 -61.0625 161.9375 C-61.7225 161.9375 -62.3825 161.9375 -63.0625 161.9375 C-63.32933594 162.53175781 -63.59617187 163.12601563 -63.87109375 163.73828125 C-65.84154801 167.375546 -68.5425777 169.79378792 -72.0625 171.9375 C-75.80397917 172.9401186 -79.51288199 173.71230901 -83.0625 171.9375 C-83.0625 171.2775 -83.0625 170.6175 -83.0625 169.9375 C-83.7225 169.9375 -84.3825 169.9375 -85.0625 169.9375 C-87.51739316 164.81424471 -88.56591703 160.59854589 -89.0625 154.9375 C-89.51238281 155.43378906 -89.96226562 155.93007813 -90.42578125 156.44140625 C-97.30187759 163.70333565 -106.23147641 171.32758718 -116.5625 172.25 C-121.34164394 171.82329072 -123.7255228 170.51322313 -126.8125 166.875 C-128.60548188 162.66149259 -128.80688904 158.47679812 -129.0625 153.9375 C-129.908125 154.95070313 -130.75375 155.96390625 -131.625 157.0078125 C-147.40084059 175.69812151 -147.40084059 175.69812151 -156.24609375 177.34375 C-157.36177734 177.39015625 -157.36177734 177.39015625 -158.5 177.4375 C-159.24121094 177.4890625 -159.98242188 177.540625 -160.74609375 177.59375 C-163.65635883 176.76925669 -165.23169504 175.32519596 -167.05639648 172.93847656 C-169.08735203 168.89923568 -168.8479499 164.49871649 -168.875 160.0625 C-168.90013672 159.08796875 -168.92527344 158.1134375 -168.95117188 157.109375 C-169.00977558 154.71834372 -169.04624991 152.32913153 -169.0625 149.9375 C-169.74957031 150.70835937 -170.43664062 151.47921875 -171.14453125 152.2734375 C-172.05451401 153.28661418 -172.96467987 154.29962643 -173.875 155.3125 C-174.32681641 155.82039062 -174.77863281 156.32828125 -175.24414062 156.8515625 C-180.50716193 162.69082702 -180.50716193 162.69082702 -184.40234375 163.30859375 C-191.3757969 163.48686248 -191.3757969 163.48686248 -194.5625 160.9375 C-198.80828955 152.44592091 -198.71886116 144.21688698 -197.0625 134.9375 C-193.35723684 125.23223684 -193.35723684 125.23223684 -190.0625 121.9375 C-187.5625 121.8125 -187.5625 121.8125 -185.0625 121.9375 C-184.0625 122.9375 -184.0625 122.9375 -183.75 125.375 C-184.04839187 128.77666734 -184.64447414 130.36858474 -186.0625 133.375 C-188.96487437 140.04841713 -188.40454736 146.81151334 -188.0625 153.9375 C-183.55612973 152.55396527 -181.5596978 150.56116 -178.6875 146.875 C-177.91535156 145.8953125 -177.14320313 144.915625 -176.34765625 143.90625 C-175.59355469 142.9265625 -174.83945312 141.946875 -174.0625 140.9375 C-173.38058594 140.0609375 -172.69867188 139.184375 -171.99609375 138.28125 C-170.81591699 136.76352791 -169.64073008 135.24190009 -168.47265625 133.71484375 C-167.0625 131.9375 -167.0625 131.9375 -165.0625 129.9375 C-162.5625 129.6875 -162.5625 129.6875 -160.0625 129.9375 C-158.0625 131.9375 -158.0625 131.9375 -157.83203125 134.8359375 C-157.84621094 135.98320312 -157.86039062 137.13046875 -157.875 138.3125 C-157.88144531 139.45460938 -157.88789063 140.59671875 -157.89453125 141.7734375 C-158.0625 144.9375 -158.0625 144.9375 -158.56689453 146.85107422 C-159.10953481 149.13550958 -159.17600725 151.13842747 -159.16015625 153.484375 C-159.15693359 154.32871094 -159.15371094 155.17304688 -159.15039062 156.04296875 C-159.14201172 156.91566406 -159.13363281 157.78835938 -159.125 158.6875 C-159.12048828 159.57566406 -159.11597656 160.46382812 -159.11132812 161.37890625 C-159.099574 163.56517329 -159.08314249 165.75130179 -159.0625 167.9375 C-155.63224342 167.18352898 -153.86779868 166.19037823 -151.25 163.8125 C-150.62480469 163.25304687 -149.99960937 162.69359375 -149.35546875 162.1171875 C-137.98114832 151.30480113 -127.80296521 140.64417714 -124.7109375 124.8515625 C-124.0625 121.9375 -124.0625 121.9375 -122.0625 119.9375 C-119.4375 120.3125 -119.4375 120.3125 -117.0625 120.9375 C-116.959375 121.576875 -116.85625 122.21625 -116.75 122.875 C-116.523125 123.555625 -116.29625 124.23625 -116.0625 124.9375 C-114.5775 125.4325 -114.5775 125.4325 -113.0625 125.9375 C-113.50458637 131.46357958 -114.92987493 134.43435146 -118.0625 138.9375 C-119.2975369 143.27576254 -119.21179839 147.65004717 -119.1875 152.125 C-119.19136719 152.84880859 -119.19523437 153.57261719 -119.19921875 154.31835938 C-119.26704326 158.25666502 -119.26704326 158.25666502 -118.0625 161.9375 C-105.30602868 160.91698229 -95.98592775 149.46550719 -87.95703125 140.33984375 C-85.85547996 137.67499005 -84.3892991 135.08943691 -83.01171875 132.00390625 C-78.07677717 121.26076182 -71.12246632 111.46373527 -60.0625 106.625 C-56.52052015 105.81329629 -53.6849255 105.54232631 -50.0625 105.9375 C-46.59481863 108.14420632 -44.46131665 110.65635999 -42.0625 113.9375 C-41.69898438 112.37515625 -41.69898438 112.37515625 -41.328125 110.78125 C-38.1611501 97.2146574 -34.90272554 83.71033275 -31.00390625 70.33203125 C-29.76896219 65.87905867 -28.75252031 61.39029953 -27.7734375 56.875 C-27.03363804 53.81824617 -26.07765932 50.91409215 -25.0625 47.9375 C-24.60259087 46.46353733 -24.14723078 44.98815102 -23.6953125 43.51171875 C-23.44910156 42.71443359 -23.20289063 41.91714844 -22.94921875 41.09570312 C-22.44538228 39.46146432 -21.94531845 37.82605716 -21.44921875 36.18945312 C-19.91966222 31.2639641 -18.12478415 26.59121676 -15.94970703 21.91357422 C-14.78382679 19.31681179 -13.89896031 16.65599601 -13.0625 13.9375 C-12.4025 13.9375 -11.7425 13.9375 -11.0625 13.9375 C-10.7325 11.9575 -10.4025 9.9775 -10.0625 7.9375 C-9.4025 7.9375 -8.7425 7.9375 -8.0625 7.9375 C-7.794375 7.174375 -7.52625 6.41125 -7.25 5.625 C-5.43752444 1.52308163 -4.6909282 -0.09573323 0 0 Z " fill="#080808" transform="translate(479.0625,262.0625)"/>
<path d="M0 0 C2.4375 0.6875 2.4375 0.6875 4.4375 1.6875 C5.10076136 14.87903154 2.40288411 26.71499613 -2.23828125 39.0078125 C-3.71451297 43.10990772 -4.93398653 47.24596031 -6.125 51.4375 C-7.66488541 56.81401883 -9.34546241 62.00416536 -11.53125 67.16015625 C-12.82823143 70.33874332 -13.93687076 73.56945235 -15.0625 76.8125 C-16.65141967 81.31200954 -18.35071992 85.54822484 -20.59375 89.75390625 C-21.75753654 92.07678665 -22.68603779 94.45290429 -23.625 96.875 C-24.99706205 100.39626861 -26.60486125 103.45314032 -28.5625 106.6875 C-29.66589004 109.31908523 -30.63108851 111.99079552 -31.5625 114.6875 C-31.8713916 115.54674072 -32.1802832 116.40598145 -32.49853516 117.29125977 C-33.73062882 121.22417739 -34.55146789 125.14513272 -35.33203125 129.1875 C-35.49323456 130.00742935 -35.65443787 130.8273587 -35.82052612 131.6721344 C-36.3435792 134.34299597 -36.85987868 137.01509805 -37.375 139.6875 C-37.55302155 140.60554413 -37.73104309 141.52358826 -37.91445923 142.4694519 C-40.84626241 157.60659902 -43.56022004 172.76410893 -45.97265625 187.99365234 C-46.49135528 191.24196211 -47.02413913 194.48740727 -47.56332397 197.73234558 C-50.31632359 214.33768371 -52.52861982 230.87423541 -53.5625 247.6875 C-52.2425 248.0175 -50.9225 248.3475 -49.5625 248.6875 C-48.4375 253.4375 -48.4375 253.4375 -49.5625 255.6875 C-50.2225 255.6875 -50.8825 255.6875 -51.5625 255.6875 C-51.871875 256.326875 -52.18125 256.96625 -52.5 257.625 C-53.5625 259.6875 -53.5625 259.6875 -54.5625 260.6875 C-57 260.9375 -57 260.9375 -59.5625 260.6875 C-62.19794597 256.73433105 -61.86240605 253.3361486 -61.8125 248.75 C-61.80645752 247.86119141 -61.80041504 246.97238281 -61.79418945 246.05664062 C-61.61036933 233.40981588 -60.11000331 220.92549183 -58.2109375 208.43359375 C-58.08207657 207.58059189 -57.95321564 206.72759003 -57.82044983 205.84873962 C-56.29188208 195.80318896 -54.6473993 185.77661097 -53 175.75 C-52.39371913 172.05351807 -51.7882618 168.35690234 -51.18359375 164.66015625 C-51.04110199 163.78928375 -50.89861023 162.91841125 -50.75180054 162.02114868 C-49.64697938 155.2494526 -48.58396488 148.47232648 -47.5625 141.6875 C-48.2225 143.0075 -48.8825 144.3275 -49.5625 145.6875 C-50.2225 145.6875 -50.8825 145.6875 -51.5625 145.6875 C-51.789375 146.3475 -52.01625 147.0075 -52.25 147.6875 C-53.9503815 151.57408628 -55.95873084 155.32429817 -58.5625 158.6875 C-59.2225 158.6875 -59.8825 158.6875 -60.5625 158.6875 C-60.80871094 159.42484375 -61.05492187 160.1621875 -61.30859375 160.921875 C-63.48794611 165.72867085 -67.23288441 168.77864474 -71.5625 171.6875 C-74.68597335 172.81780376 -77.27294552 173.18572379 -80.5625 172.6875 C-83.73623209 170.93181842 -85.09981207 169.54347267 -86.8125 166.375 C-87.70806902 163.16587769 -88.17355453 159.99353646 -88.5625 156.6875 C-89.325625 157.656875 -90.08875 158.62625 -90.875 159.625 C-98.2738952 168.24829866 -109.05454086 177.6685598 -120.5625 179.6875 C-126.60246025 179.77227137 -130.87873821 178.71771364 -135.5625 174.6875 C-142.4142203 165.93252406 -142.46091575 156.29779 -141.5625 145.6875 C-139.03694639 127.53913077 -131.60982539 104.01998088 -117.39453125 91.828125 C-113.85553945 89.24353468 -111.63391502 87.70734102 -107.1875 87.625 C-102.91792169 89.35316265 -102.91792169 89.35316265 -101.5625 91.6875 C-100.56732253 98.77813944 -102.63105518 103.80306963 -106.5625 109.6875 C-110.03073849 113.89225823 -113.74021114 117.80592021 -117.5625 121.6875 C-118.43519531 122.58726562 -119.30789063 123.48703125 -120.20703125 124.4140625 C-126.18593994 130.49921997 -126.18593994 130.49921997 -128.5625 131.6875 C-131.51967292 138.81950528 -131.67830634 146.13930219 -131.8125 153.75 C-131.83393066 154.42272949 -131.85536133 155.09545898 -131.87744141 155.78857422 C-131.91110757 160.88712752 -130.88984119 164.25312418 -128.5625 168.6875 C-125.20274602 170.36737699 -122.16953594 170.34602136 -118.5625 169.6875 C-106.73837531 164.88394935 -90.76443417 149.94731789 -85.5078125 138.36328125 C-85.23710937 137.58339844 -84.96640625 136.80351562 -84.6875 136 C-79.91325246 123.46760021 -72.22680986 113.30760947 -60.57421875 106.53125 C-56.38249473 104.77316769 -51.81212563 105.27095812 -47.5625 106.6875 C-47.5625 107.3475 -47.5625 108.0075 -47.5625 108.6875 C-46.0775 109.1825 -46.0775 109.1825 -44.5625 109.6875 C-43.375 112.25 -43.375 112.25 -42.5625 114.6875 C-40.11242935 111.01239402 -39.63919261 107.51165022 -38.875 103.25 C-35.23492327 84.13160675 -30.38449994 65.27514256 -24.25341797 46.80615234 C-23.33289042 43.98341803 -22.47928295 41.14209889 -21.62231445 38.29956055 C-18.46754554 27.90949189 -14.45914239 18.18282517 -9.4375 8.5625 C-9.10065186 7.91015381 -8.76380371 7.25780762 -8.41674805 6.58569336 C-4.59083569 -0.55985801 -4.59083569 -0.55985801 0 0 Z " fill="#090909" transform="translate(589.5625,262.3125)"/>
<path d="M0 0 C0 0.66 0 1.32 0 2 C0.66 2 1.32 2 2 2 C12.46834586 15.21964188 11.3055032 34.45510165 9.65136719 50.35009766 C4.91948722 86.08051278 4.91948722 86.08051278 -1 92 C-3.625 91.625 -3.625 91.625 -6 91 C-6.43406637 85.682687 -5.68039032 81.50077931 -4.1875 76.375 C-0.19452257 62.31728643 1.25202353 47.89545957 1.375 33.3125 C1.39578613 31.86242554 1.39578613 31.86242554 1.41699219 30.38305664 C1.36421063 22.32622968 0.63683353 13.2199842 -5 7 C-9.92306093 5.35897969 -13.85491937 4.99917971 -18.5703125 7.19921875 C-25.19667667 11.12558677 -30.71131821 15.35109774 -35.5625 21.375 C-36.33851563 22.33792969 -37.11453125 23.30085938 -37.9140625 24.29296875 C-39.52679922 26.38590236 -41.02360569 28.46035069 -42.4375 30.6875 C-42.953125 31.450625 -43.46875 32.21375 -44 33 C-44.66 33 -45.32 33 -46 33 C-46.309375 33.99 -46.309375 33.99 -46.625 35 C-47.84252405 37.6564161 -49.03854817 39.46985626 -50.8125 41.75 C-53.4538224 45.16780754 -55.54885245 48.64214957 -57.58203125 52.4453125 C-59.9030177 56.62692445 -62.48509819 60.6466607 -65.03515625 64.69140625 C-66.82488392 67.70512262 -68.403403 70.73441031 -69.9440918 73.87768555 C-71.04492001 76.09028663 -72.19732703 78.2684716 -73.3671875 80.4453125 C-77.83793381 88.77828197 -82.08836625 97.0550862 -85.6484375 105.82421875 C-86.67910841 108.24599751 -87.76798372 110.53056858 -88.97265625 112.86328125 C-91.05049019 116.96269891 -92.59312863 121.15129443 -94.0625 125.5 C-94.55258564 126.92735819 -95.0434686 128.35444287 -95.53515625 129.78125 C-95.77516357 130.48064697 -96.0151709 131.18004395 -96.26245117 131.90063477 C-96.99545676 133.98706808 -97.76811239 136.05432372 -98.5546875 138.12109375 C-99.8574927 141.56503833 -100.99421818 145.03760249 -102.0625 148.5625 C-102.38347656 149.61566406 -102.70445312 150.66882813 -103.03515625 151.75390625 C-104.04828609 155.1624524 -105.02362262 158.5807647 -106 162 C-106.30679688 162.99515625 -106.61359375 163.9903125 -106.9296875 165.015625 C-114.28058223 190.16662018 -120.42480241 224.79118736 -109.125 249.6875 C-105.93388007 254.66189283 -102.86297881 258.46445793 -97 260 C-89.11404344 261.15003533 -80.97558689 257.60364356 -74.453125 253.33203125 C-73.10709891 252.29794916 -71.78151643 251.23610711 -70.48828125 250.13671875 C-69 249 -69 249 -67 249 C-67 248.34 -67 247.68 -67 247 C-65.4609375 245.51953125 -65.4609375 245.51953125 -63.375 243.8125 C-60.00048413 240.95071976 -57.12329806 237.98141263 -54.31640625 234.5703125 C-52.65995053 232.59436236 -50.82204443 230.82204443 -49 229 C-48.67 228.34 -48.34 227.68 -48 227 C-47.34 227 -46.68 227 -46 227 C-45.76410156 226.30261719 -45.52820313 225.60523438 -45.28515625 224.88671875 C-43.75196944 221.4428736 -41.74311884 218.79167041 -39.4375 215.8125 C-36.45571326 212.07228756 -36.45571326 212.07228756 -34 208 C-33.34 208 -32.68 208 -32 208 C-31.87625 207.4225 -31.7525 206.845 -31.625 206.25 C-30.99351176 203.97664233 -30.11141809 202.0746471 -29 200 C-28.34 200 -27.68 200 -27 200 C-26.82984375 199.13568359 -26.82984375 199.13568359 -26.65625 198.25390625 C-25.93895508 195.79033976 -24.91416152 194.07107508 -23.5 191.9375 C-21.91925755 189.54341042 -20.91813468 187.75440404 -20 185 C-19.34 185 -18.68 185 -18 185 C-17.84144531 184.443125 -17.68289062 183.88625 -17.51953125 183.3125 C-16.03464092 178.45584213 -14.25648278 174.4029997 -11.37890625 170.21484375 C-10.08587544 168.13793591 -8.99948457 166.05215556 -7.91381836 163.86157227 C-7.55501083 163.13905777 -7.19620331 162.41654327 -6.82652283 161.6721344 C-6.55377029 161.12033005 -6.28101776 160.5685257 -6 160 C-6.78403198 160.08769653 -7.56806396 160.17539307 -8.37585449 160.26574707 C-15.78982008 161.09423256 -23.20423892 161.91848189 -30.61919403 162.73806 C-34.43063579 163.15948917 -38.2418859 163.58251396 -42.05273438 164.00927734 C-45.73518244 164.42160067 -49.41808569 164.82961227 -53.10133362 165.23472595 C-54.50160015 165.38948816 -55.9017003 165.54576409 -57.30162048 165.70362854 C-71.65237112 167.31994894 -71.65237112 167.31994894 -78 167 C-79 166 -79 166 -79.25 163.5625 C-79.1675 162.716875 -79.085 161.87125 -79 161 C-75.17794113 158.45196076 -71.62701401 158.28643949 -67.171875 157.81640625 C-65.83745361 157.66614487 -65.83745361 157.66614487 -64.47607422 157.5128479 C-61.56822809 157.18783221 -58.65922628 156.87489994 -55.75 156.5625 C-53.756783 156.34268328 -51.76361907 156.12238479 -49.77050781 155.90161133 C-33.52862018 154.11494437 -17.27215398 152.48550928 -1 151 C-0.67 150.01 -0.34 149.02 0 148 C1.66611905 147.957279 3.33382885 147.95936168 5 148 C5.33 148.33 5.66 148.66 6 149 C15.36735785 149.07139754 24.08121818 147.24461332 33.08984375 144.9375 C42.95231214 142.47615607 42.95231214 142.47615607 46 144 C45.67 145.98 45.34 147.96 45 150 C37.79267584 153.24157163 30.49045649 154.83798493 22.75 156.25 C21.80366699 156.42499023 20.85733398 156.59998047 19.88232422 156.78027344 C14.84354206 157.66221559 10.11410982 158.19778325 5 158 C4.92652344 158.85271484 4.92652344 158.85271484 4.8515625 159.72265625 C4.77679688 160.49480469 4.70203125 161.26695312 4.625 162.0625 C4.55539063 162.81660156 4.48578125 163.57070313 4.4140625 164.34765625 C4.00654537 166.95807259 3.31209003 169.3878641 2.56201172 171.91674805 C1.36754798 176.34435843 0.59849191 180.87096232 -0.25 185.375 C-0.46253418 186.49044189 -0.67506836 187.60588379 -0.89404297 188.75512695 C-2.94514394 199.58005298 -4.91237421 210.42052678 -6.85644531 221.26513672 C-7.09420007 222.58695023 -7.33215428 223.90872788 -7.5703125 225.23046875 C-7.68819626 225.88639511 -7.80608002 226.54232147 -7.92753601 227.21812439 C-8.69783755 231.46141007 -9.55889654 235.67898115 -10.44921875 239.8984375 C-12.69219394 250.99606701 -14.12308454 262.22842673 -15.6875 273.4375 C-16.01067324 275.72987335 -16.334238 278.02219155 -16.65820312 280.31445312 C-17.44331344 285.87567472 -18.22360153 291.43755582 -19 297 C-17.68 297.33 -16.36 297.66 -15 298 C-13.81043117 302.15226856 -14.21039437 304.38725993 -15.9375 308.3125 C-16.31777344 309.19550781 -16.69804687 310.07851563 -17.08984375 310.98828125 C-17.54037109 311.98408203 -17.54037109 311.98408203 -18 313 C-18.66 313 -19.32 313 -20 313 C-20 313.66 -20 314.32 -20 315 C-21.98 315 -23.96 315 -26 315 C-31.44578707 306.16958033 -27.54355625 291.62622641 -25.8515625 281.99609375 C-24.96217108 276.92703433 -24.24965942 271.83715778 -23.53125 266.74145508 C-22.62555697 260.36289545 -21.6689993 253.99230064 -20.6875 247.625 C-20.58117249 246.93500916 -20.47484497 246.24501831 -20.36529541 245.53411865 C-18.78630638 235.35824916 -16.92774419 225.28203948 -14.74389648 215.21606445 C-13.11692698 207.7039244 -11.77916444 200.17281922 -10.578125 192.58203125 C-10.1134894 189.70317418 -9.59837493 186.85336195 -9 184 C-9.99 185.98 -10.98 187.96 -12 190 C-12.66 190 -13.32 190 -14 190 C-14.28875 190.721875 -14.5775 191.44375 -14.875 192.1875 C-15.91666667 194.79166667 -16.95833333 197.39583333 -18 200 C-18.66 200 -19.32 200 -20 200 C-20.09925781 200.72703125 -20.19851562 201.4540625 -20.30078125 202.203125 C-21.08813534 205.35254137 -22.26293487 207.14992525 -24.1875 209.75 C-27.1963943 213.8732996 -30.01311408 218.0673423 -32.73828125 222.3828125 C-33.15464844 222.91648437 -33.57101563 223.45015625 -34 224 C-34.66 224 -35.32 224 -36 224 C-36.268125 224.7425 -36.53625 225.485 -36.8125 226.25 C-37.95276751 228.89061949 -39.09380306 230.85552844 -41 233 C-41.66 233 -42.32 233 -43 233 C-43.26039063 233.5775 -43.52078125 234.155 -43.7890625 234.75 C-46.64806248 240.06220642 -51.50952096 245.00846308 -56 249 C-56.66 249 -57.32 249 -58 249 C-58.33 249.99 -58.66 250.98 -59 252 C-70.73743725 262.01635993 -81.80344346 268.60251853 -97.5546875 268.46875 C-104.86062266 267.47474522 -108.87421365 263.66163544 -113.50390625 258.23828125 C-126.11914038 241.63928897 -124.25095688 215.53169941 -121.77026367 196.0769043 C-120.08966902 183.91684376 -118.09716727 171.88356465 -115 160 C-114.67 158.73027344 -114.34 157.46054687 -114 156.15234375 C-112.3588973 150.15847254 -110.4695555 144.40975312 -108.0625 138.68359375 C-106.75278882 135.37561 -105.65922785 132.00763779 -104.5625 128.625 C-101.15349138 118.24007775 -96.87991 108.47341289 -91.85424805 98.78149414 C-89.54549411 94.28561985 -87.70303869 89.76004603 -86 85 C-85.34 85 -84.68 85 -84 85 C-83.9175 84.13375 -83.835 83.2675 -83.75 82.375 C-82.88639883 78.48879476 -81.27316551 76.23753875 -79 73 C-78.28426473 71.35380887 -77.5974304 69.69271945 -77 68 C-76.34 68 -75.68 68 -75 68 C-74.90460938 67.2884375 -74.80921875 66.576875 -74.7109375 65.84375 C-73.88259166 62.53036664 -72.51424448 60.33785246 -70.625 57.5 C-68.33951073 54.0377269 -66.11225405 50.57084381 -64 47 C-62.65286568 44.72454342 -61.29943059 42.45401528 -59.9375 40.1875 C-59.58623047 39.59001953 -59.23496094 38.99253906 -58.87304688 38.37695312 C-57.97012381 36.88346034 -56.99076942 35.43672083 -56 34 C-55.34 34 -54.68 34 -54 34 C-53.72671875 33.25492187 -53.4534375 32.50984375 -53.171875 31.7421875 C-47.44269251 18.33590048 -32.10003859 3.62918435 -19 -2.375 C-11.85701306 -3.86312228 -6.48917423 -3.31362088 0 0 Z " fill="#0A0A0A" transform="translate(236,236)"/>
<path d="M0 0 C3.14691155 3.14691155 2.55246713 6.6333608 2.57226562 10.93359375 C2.11611917 25.89519737 -5.12690331 40.30777742 -12.08740234 53.27001953 C-13.42711749 55.80967217 -14.63996641 58.40816894 -15.875 61 C-17.80091024 64.95125607 -20.00206022 68.39526529 -22.57543945 71.953125 C-31.28424475 84.41344083 -33.76541212 99.40967407 -37 114 C-37.31357646 115.40011565 -37.62737823 116.80018087 -37.94140625 118.20019531 C-39.46641479 125.02080571 -40.95287507 131.84905351 -42.4140625 138.68359375 C-43.70732275 144.70876501 -45.09725333 150.70218934 -46.5625 156.6875 C-49.73024386 169.71492792 -52.3441403 182.86057795 -55 196 C-55.22187988 197.09425293 -55.44375977 198.18850586 -55.67236328 199.31591797 C-58.2966399 212.27415421 -60.83899591 225.24698936 -63.30102539 238.23706055 C-64.16550972 242.77641406 -65.04967346 247.3024036 -66.07421875 251.80859375 C-66.92027112 255.5406575 -67.56687122 259.27519757 -68.125 263.0625 C-68.37636719 264.75052734 -68.37636719 264.75052734 -68.6328125 266.47265625 C-68.75398437 267.30667969 -68.87515625 268.14070313 -69 269 C-68.01 269.33 -67.02 269.66 -66 270 C-65.60746746 274.44870215 -66.84694043 277.14243493 -69 281 C-69.66 281 -70.32 281 -71 281 C-71 281.66 -71 282.32 -71 283 C-73.9375 282.625 -73.9375 282.625 -77 282 C-80.23282699 275.53434602 -77.33392498 265.61214615 -76.1875 258.8125 C-76.00517822 257.70189209 -75.82285645 256.59128418 -75.63500977 255.44702148 C-74.50977333 248.70300251 -73.22685793 242.03397733 -71.7109375 235.3671875 C-70.85754721 231.32530604 -70.20858059 227.26669243 -69.5625 223.1875 C-68.5069056 216.58201697 -67.15114715 210.1180895 -65.55541992 203.6237793 C-63.92987073 196.92410039 -62.6436252 190.17214604 -61.39477539 183.39331055 C-59.92498049 175.4348148 -58.1525197 167.57218022 -56.24951172 159.70703125 C-54.34356052 151.82691404 -52.52271273 143.93832095 -50.875 136 C-48.54632924 124.79177303 -45.94143931 113.70181527 -42.97680664 102.64501953 C-41.32707988 96.42035322 -39.8874977 90.16273083 -38.5 83.875 C-36.83286104 76.33829356 -34.91457072 68.94308816 -32.6640625 61.56030273 C-31.641409 58.20288894 -30.69212914 54.87874019 -30 51.4375 C-27.22151442 37.96446615 -22.03956911 25.04887978 -16.125 12.6875 C-15.80942139 12.00494141 -15.49384277 11.32238281 -15.16870117 10.61914062 C-12.01879345 4.20397868 -7.88058028 -1.25372868 0 0 Z " fill="#0A0A0A" transform="translate(874,241)"/>
<path d="M0 0 C1.00426025 0.00128906 2.00852051 0.00257812 3.04321289 0.00390625 C10.29018813 0.09778659 16.7642837 0.8337896 23.625 3.3125 C21.45486624 4.01004299 20.0406889 4.41686753 17.80175781 3.85473633 C4.42118738 0.52159962 -11.51106452 3.04318518 -24.375 7.3125 C-25.54933594 7.67472656 -26.72367188 8.03695312 -27.93359375 8.41015625 C-73.389464 23.35941124 -110.69235727 66.01222814 -132.375 107.3125 C-143.67426463 130.02020091 -150.20364754 156.90944357 -142.06591797 181.57543945 C-140.84318241 185.29219465 -140.1895089 187.57328709 -141.375 191.3125 C-156.61299503 164.36312017 -156.61299503 164.36312017 -158.375 154.3125 C-162.37440148 160.31160222 -162.76194542 165.19277232 -162.75 172.25 C-162.74867065 173.64810913 -162.74867065 173.64810913 -162.74731445 175.07446289 C-162.59258176 184.18484139 -161.00393945 192.37492866 -156.67578125 200.50390625 C-155.375 203.3125 -155.375 203.3125 -156.375 206.3125 C-160.23450163 198.45610348 -163.46715427 190.86933048 -165.375 182.3125 C-165.601875 181.3225 -165.82875 180.3325 -166.0625 179.3125 C-167.40236564 166.44978982 -165.38951848 155.29174631 -158.375 144.3125 C-157.715 144.3125 -157.055 144.3125 -156.375 144.3125 C-154.395 151.2425 -154.395 151.2425 -152.375 158.3125 C-152.25125 157.0028125 -152.1275 155.693125 -152 154.34375 C-148.86879301 125.21190792 -137.44866895 98.35719505 -119.375 75.3125 C-118.68792969 74.41660156 -118.00085938 73.52070312 -117.29296875 72.59765625 C-113.28978993 67.47327153 -109.03508953 62.60696227 -104.6484375 57.80859375 C-103.15680459 56.17087308 -101.68209219 54.51754577 -100.2265625 52.84765625 C-81.75027022 31.73665803 -57.44919305 13.44915908 -30.375 5.3125 C-28.79060088 4.75300906 -27.20714412 4.19083627 -25.625 3.625 C-17.13268315 0.88074873 -8.90288805 -0.04757325 0 0 Z " fill="#2C2B2C" transform="translate(539.375,36.6875)"/>
<path d="M0 0 C0.33 0 0.66 0 1 0 C2.66377895 39.93069476 -19.81330103 78.90896099 -40 112 C-40.52094238 112.85851562 -41.04188477 113.71703125 -41.57861328 114.6015625 C-76.92561325 172.59291185 -76.92561325 172.59291185 -94 179 C-99.38113218 179.96655915 -103.91006443 179.52299851 -108.625 176.6875 C-113.92131516 172.7695485 -117.43280114 167.462577 -121 162 C-118.64366227 172.14347288 -114.06546779 182.15657279 -106 189 C-107.57062778 193.18179647 -110.65429637 195.60576335 -114 198.375 C-114.58740967 198.86250732 -115.17481934 199.35001465 -115.7800293 199.85229492 C-123.04550141 205.78113371 -130.39044697 209.94128667 -139.125 213.3125 C-139.78218018 213.56749268 -140.43936035 213.82248535 -141.11645508 214.08520508 C-145.74677393 215.78100222 -150.09067612 216.53530899 -155 217 C-151.70341395 214.80227596 -148.85042485 213.9578684 -145.0625 212.8125 C-133.12514084 208.98310114 -123.21953188 202.49303969 -114 194 C-113.67 193.34 -113.34 192.68 -113 192 C-112.34 192 -111.68 192 -111 192 C-112.69389789 188.11399896 -114.63154378 185.17704961 -117.375 181.9375 C-124.69430982 172.78836272 -127.12994526 161.86292622 -127.1875 150.375 C-127.20876953 148.43753906 -127.20876953 148.43753906 -127.23046875 146.4609375 C-127.01978565 143.29712011 -126.68453393 141.62334533 -125 139 C-124.64808594 139.95519531 -124.29617188 140.91039062 -123.93359375 141.89453125 C-120.00016349 152.29995987 -115.59707433 162.56469248 -107 170 C-106.401875 170.598125 -105.80375 171.19625 -105.1875 171.8125 C-101.76179522 173.67216831 -98.71438972 173.92350457 -95 173 C-91.88990791 171.08609717 -89.50328564 168.6410376 -87 166 C-86.28972656 165.26265625 -85.57945312 164.5253125 -84.84765625 163.765625 C-74.04403192 152.14555806 -64.99812374 139.02955214 -56 126 C-55.566875 125.37367676 -55.13375 124.74735352 -54.6875 124.10205078 C-31.63326332 90.59235755 -3.00625056 47.5989672 -0.375 5.9375 C-0.30023437 4.81214844 -0.22546875 3.68679687 -0.1484375 2.52734375 C-0.07496094 1.27630859 -0.07496094 1.27630859 0 0 Z " fill="#2D2C2C" transform="translate(571,51)"/>
<path d="M0 0 C-0.51272461 0.23074219 -1.02544922 0.46148437 -1.55371094 0.69921875 C-32.60650722 14.77240721 -58.84771801 37.49593399 -79 65 C-80.02193981 66.36603178 -81.0440843 67.73191044 -82.06640625 69.09765625 C-99.37283807 92.43388328 -114.34922407 117.59921084 -126.92919922 143.78466797 C-128.16684347 146.34517503 -129.42956418 148.89273947 -130.69140625 151.44140625 C-152.26853984 195.32576719 -169.35911284 241.78965199 -182 289 C-182.33 289 -182.66 289 -183 289 C-182.39307113 281.143643 -180.56773794 273.84088478 -178.5 266.25 C-178.32326752 265.59728119 -178.14653503 264.94456238 -177.96444702 264.27206421 C-157.84119163 190.07716073 -127.05159199 115.16178023 -77 56 C-76.31164062 55.18015625 -75.62328125 54.3603125 -74.9140625 53.515625 C-70.84788009 48.76867901 -66.46023962 44.37483077 -62 40 C-61.175 39.175 -60.35 38.35 -59.5 37.5 C-58.675 36.675 -57.85 35.85 -57 35 C-56.49855469 34.45214844 -55.99710937 33.90429688 -55.48046875 33.33984375 C-42.81076407 19.89725948 -26.30307783 9.82312875 -9.75 1.875 C-9.11763428 1.56715576 -8.48526855 1.25931152 -7.83374023 0.94213867 C-3.36412041 -1.12137347 -3.36412041 -1.12137347 0 0 Z " fill="#2E2D2E" transform="translate(551,54)"/>
<path d="M0 0 C0.19916016 1.04800781 0.19916016 1.04800781 0.40234375 2.1171875 C0.57894531 3.02726562 0.75554687 3.93734375 0.9375 4.875 C1.11152344 5.77992188 1.28554688 6.68484375 1.46484375 7.6171875 C1.89963701 9.99956317 1.89963701 9.99956317 3 12 C2.67 12.99 2.34 13.98 2 15 C1.34 15 0.68 15 0 15 C-0.12375 15.763125 -0.2475 16.52625 -0.375 17.3125 C-1 20 -1 20 -3 23 C-3.66 23 -4.32 23 -5 23 C-5.185625 23.78375 -5.37125 24.5675 -5.5625 25.375 C-7.24825341 29.62603034 -9.57682385 32.90147066 -12.25390625 36.5859375 C-13.68490917 38.56437107 -15.01504681 40.55886699 -16.3125 42.625 C-16.869375 43.40875 -17.42625 44.1925 -18 45 C-18.66 45 -19.32 45 -20 45 C-20 45.66 -20 46.32 -20 47 C-22.95481492 49.74375671 -23.77471908 50 -28 50 C-30.55979315 44.88041369 -29.64677647 36.63977934 -29 31 C-27.86448209 27.75985837 -26.22084471 25.58331418 -24 23 C-19.55549798 17.18189326 -19.55549798 17.18189326 -17.5625 10.3125 C-16.8387659 6.05051032 -15.17438216 4.86474944 -11.88671875 2.26171875 C-7.4588855 -0.69933744 -5.31398733 -1.20772439 0 0 Z " fill="#F7F7F7" transform="translate(428,377)"/>
<path d="M0 0 C0.19916016 1.01320313 0.19916016 1.01320313 0.40234375 2.046875 C0.57894531 2.93890625 0.75554688 3.8309375 0.9375 4.75 C1.11152344 5.63171875 1.28554688 6.5134375 1.46484375 7.421875 C1.95187291 9.94303717 1.95187291 9.94303717 2.62890625 12.140625 C3 14 3 14 2 17 C1.34 17 0.68 17 0 17 C-0.04125 17.66 -0.0825 18.32 -0.125 19 C-1.19864488 22.68106815 -3.05036353 24.86763495 -5.41015625 27.84375 C-6.9411538 29.92018894 -8.04634196 31.94260352 -9.1875 34.25 C-11.47389696 38.49510185 -14.32563337 42.02454036 -17.5 45.625 C-17.96301514 46.1705957 -18.42603027 46.71619141 -18.90307617 47.27832031 C-20.28125 48.7890625 -20.28125 48.7890625 -23 51 C-25.84375 50.8359375 -25.84375 50.8359375 -28 50 C-29.67611579 43.29553685 -29.65925212 37.36514866 -27 31 C-24.79883685 27.76590384 -22.30946214 24.75102687 -19.8125 21.7421875 C-17.14818616 18.33073803 -15.68629825 16.18390781 -15.90234375 11.76953125 C-16 8 -16 8 -14.35546875 5.72265625 C-13.64003906 5.17480469 -12.92460938 4.62695312 -12.1875 4.0625 C-11.47980469 3.49660156 -10.77210938 2.93070312 -10.04296875 2.34765625 C-6.6599483 0.11602708 -3.95111744 -0.10678696 0 0 Z " fill="#F7F7F7" transform="translate(538,376)"/>
<path d="M0 0 C1.89610642 2.84415963 2.96430261 5.3272013 4.1875 8.5 C7.72636943 17.11229287 12.21927504 24.60674504 19 31 C20.375 33.125 20.375 33.125 21 35 C20.67 35.99 20.34 36.98 20 38 C13.17374449 35.21893294 9.16602212 28.76943956 5 23 C7.35633773 33.14347288 11.93453221 43.15657279 20 50 C18.42937222 54.18179647 15.34570363 56.60576335 12 59.375 C11.41259033 59.86250732 10.82518066 60.35001465 10.2199707 60.85229492 C2.95449859 66.78113371 -4.39044697 70.94128667 -13.125 74.3125 C-13.78218018 74.56749268 -14.43936035 74.82248535 -15.11645508 75.08520508 C-19.74677393 76.78100222 -24.09067612 77.53530899 -29 78 C-25.70341395 75.80227596 -22.85042485 74.9578684 -19.0625 73.8125 C-7.12514084 69.98310114 2.78046812 63.49303969 12 55 C12.495 54.01 12.495 54.01 13 53 C13.66 53 14.32 53 15 53 C13.30610211 49.11399896 11.36845622 46.17704961 8.625 42.9375 C1.29984792 33.7810599 -1.14804278 22.87334764 -1.125 11.375 C-1.12886719 9.43753906 -1.12886719 9.43753906 -1.1328125 7.4609375 C-1.0283103 4.73773315 -0.82214646 2.57083894 0 0 Z " fill="#2A292A" transform="translate(445,190)"/>
<path d="M0 0 C-0.51272461 0.23074219 -1.02544922 0.46148437 -1.55371094 0.69921875 C-32.59459502 14.76700858 -58.86920057 37.490524 -79 65 C-79.7727124 66.03809814 -79.7727124 66.03809814 -80.56103516 67.09716797 C-88.24410484 77.41951226 -95.35137662 87.98399647 -102 99 C-102.66 98.34 -103.32 97.68 -104 97 C-105.485 97.99 -105.485 97.99 -107 99 C-105.452891 94.54466423 -103.06790418 90.81364927 -100.4375 86.9375 C-99.99059814 86.27484131 -99.54369629 85.61218262 -99.08325195 84.92944336 C-94.91889195 78.80113788 -90.57058282 72.83220905 -86 67 C-85.26692627 66.06172363 -85.26692627 66.06172363 -84.51904297 65.10449219 C-77.49442052 56.16091683 -70.21820474 47.86260934 -62 40 C-59.73607543 37.75983476 -57.48391802 35.52452653 -55.32421875 33.18359375 C-42.76450178 19.78456395 -26.1993278 9.77331211 -9.75 1.875 C-9.11763428 1.56715576 -8.48526855 1.25931152 -7.83374023 0.94213867 C-3.36412041 -1.12137347 -3.36412041 -1.12137347 0 0 Z " fill="#313131" transform="translate(551,54)"/>
<path d="M0 0 C1.00426025 0.00128906 2.00852051 0.00257812 3.04321289 0.00390625 C10.29018813 0.09778659 16.7642837 0.8337896 23.625 3.3125 C21.45486624 4.01004299 20.0406889 4.41686753 17.80175781 3.85473633 C4.42118738 0.52159962 -11.51106452 3.04318518 -24.375 7.3125 C-25.54933594 7.67472656 -26.72367188 8.03695312 -27.93359375 8.41015625 C-41.460273 12.85872969 -53.09472606 19.74068871 -64.44921875 28.2109375 C-66.73741497 29.85452838 -68.81329584 31.17812006 -71.375 32.3125 C-71.705 30.6625 -72.035 29.0125 -72.375 27.3125 C-59.05252274 18.09070014 -46.03330195 9.95115881 -30.375 5.3125 C-28.83174146 4.77538551 -27.2899523 4.23402153 -25.75 3.6875 C-17.21863043 0.88655059 -8.95649142 -0.04785969 0 0 Z " fill="#323232" transform="translate(539.375,36.6875)"/>
<path d="M0 0 C0.33 0 0.66 0 1 0 C1.79984315 19.19623549 -2.77867984 35.27339771 -9.9375 53 C-10.27201172 53.83789062 -10.60652344 54.67578125 -10.95117188 55.5390625 C-13.17825748 61.08317542 -15.53581485 66.55726495 -18 72 C-19.32 71.67 -20.64 71.34 -22 71 C-20.72077688 66.73143442 -19.01967445 62.89924358 -17.02954102 58.93505859 C-12.87187624 50.61621231 -9.48545188 42.20392566 -6.5625 33.375 C-6.0682251 31.88347412 -6.0682251 31.88347412 -5.56396484 30.36181641 C-2.95534594 22.2689679 -0.91267528 14.4506919 -0.375 5.9375 C-0.30023437 4.81214844 -0.22546875 3.68679687 -0.1484375 2.52734375 C-0.09945312 1.69332031 -0.05046875 0.85929687 0 0 Z " fill="#343434" transform="translate(571,51)"/>
<path d="M0 0 C0.99 0 1.98 0 3 0 C2.53036211 7.63631203 -0.12428418 14.10057656 -2.875 21.1875 C-8.1134467 34.93198924 -12.4051456 48.88143669 -16.47021484 63.01245117 C-16.80355583 64.16627037 -16.80355583 64.16627037 -17.14363098 65.34339905 C-17.55893743 66.78504377 -17.97039709 68.22780457 -18.37724304 69.67185974 C-19.32024193 72.95868567 -20.32318415 76.01128601 -22 79 C-21.39305119 71.14338486 -19.56665941 63.84137784 -17.5 56.25 C-17.32625854 55.60525726 -17.15251709 54.96051453 -16.97351074 54.29623413 C-12.03669429 35.99359596 -6.64791576 17.75834564 0 0 Z " fill="#373636" transform="translate(390,264)"/>
<path d="M0 0 C1 3 1 3 -0.03515625 5.765625 C-2.40373603 9.66459927 -5.18195496 12.58539197 -8.4375 15.75 C-9.01048828 16.32621094 -9.58347656 16.90242188 -10.17382812 17.49609375 C-14.53573661 21.80278821 -17.71727875 24.28378859 -24.0625 24.3125 C-25.34833984 24.33763672 -25.34833984 24.33763672 -26.66015625 24.36328125 C-29.42104781 23.93462864 -30.27778897 23.14005895 -32 21 C-31.01 19.515 -31.01 19.515 -30 18 C-27.8984375 17.953125 -27.8984375 17.953125 -25.375 18.25 C-21.24007729 18.35041955 -19.23156361 17.94816472 -16.125 15.1875 C-14.73954417 13.80204417 -13.36614912 12.40449716 -12 11 C-9.85397714 8.99806131 -7.67473996 7.03313918 -5.5 5.0625 C-3.66412241 3.37774482 -1.83223938 1.68871396 0 0 Z " fill="#272526" transform="translate(496,206)"/>
<path d="M0 0 C0.33 0.99 0.66 1.98 1 3 C1.66 3.33 2.32 3.66 3 4 C2.42173858 8.19239531 0.98476481 10.99173449 -1.25 14.5625 C-4.8205521 20.48888029 -7.51900937 26.55171099 -10 33 C-10.99 32.01 -11.98 31.02 -13 30 C-13.66 31.32 -14.32 32.64 -15 34 C-16.25815471 30.22553588 -15.56368528 29.46113325 -13.8671875 25.95703125 C-13.39023437 24.96509766 -12.91328125 23.97316406 -12.421875 22.95117188 C-11.91140625 21.91541016 -11.4009375 20.87964844 -10.875 19.8125 C-10.14410156 18.28786133 -10.14410156 18.28786133 -9.3984375 16.73242188 C-6.57458348 10.9157332 -3.53859405 5.41158613 0 0 Z " fill="#2D2B2C" transform="translate(412,123)"/>
<path d="M0 0 C2.39316557 7.17949671 -2.77760982 17.07652538 -5.93359375 23.72265625 C-7.21836055 26.46631576 -8.35499341 29.25775908 -9.5 32.0625 C-11.47109555 36.82852361 -13.62382168 41.42365656 -16 46 C-17.20681993 42.37954021 -16.67879713 41.23694454 -15.5234375 37.66015625 C-15.18183594 36.59603516 -14.84023438 35.53191406 -14.48828125 34.43554688 C-14.12089844 33.32244141 -13.75351562 32.20933594 -13.375 31.0625 C-13.03082031 29.98419922 -12.68664062 28.90589844 -12.33203125 27.79492188 C-9.70139573 19.69431176 -6.81496424 11.62992849 -3 4 C-2.34 4 -1.68 4 -1 4 C-0.67 2.68 -0.34 1.36 0 0 Z " fill="#D5D5D5" transform="translate(868,252)"/>
<path d="M0 0 C0.66 0 1.32 0 2 0 C2 1.32 2 2.64 2 4 C1.01 4.495 1.01 4.495 0 5 C-0.33 5.99 -0.66 6.98 -1 8 C-0.34 8 0.32 8 1 8 C0 10 0 10 -2 13 C-4.56042533 17.80306738 -4.38399484 22.62344037 -4.375 27.9375 C-4.37367065 29.33560913 -4.37367065 29.33560913 -4.37231445 30.76196289 C-4.21758176 39.87234139 -2.62893945 48.06242866 1.69921875 56.19140625 C3 59 3 59 2 62 C-1.85950163 54.14360348 -5.09215427 46.55683048 -7 38 C-7.3403125 36.515 -7.3403125 36.515 -7.6875 35 C-9.02736564 22.13728982 -7.01451848 10.97924631 0 0 Z " fill="#4A4949" transform="translate(381,181)"/>
<path d="M0 0 C0.66 0.33 1.32 0.66 2 1 C-1.51561259 16.4733212 -7.52182657 31.01437757 -15 45 C-16.19437438 41.41687687 -15.71318623 40.30806753 -14.59375 36.765625 C-14.26511963 35.722854 -13.93648926 34.68008301 -13.59790039 33.60571289 C-13.23559326 32.49832764 -12.87328613 31.39094238 -12.5 30.25 C-12.13704834 29.12650146 -11.77409668 28.00300293 -11.40014648 26.84545898 C-8.54477252 18.20855808 -5.18827124 10.07304456 -1 2 C-0.67 1.34 -0.34 0.68 0 0 Z " fill="#D7D7D7" transform="translate(842,252)"/>
<path d="M0 0 C-0.51272461 0.23074219 -1.02544922 0.46148437 -1.55371094 0.69921875 C-23.40776895 10.60352091 -41.24825813 23.74903404 -58 41 C-58.33 40.34 -58.66 39.68 -59 39 C-59.66 38.67 -60.32 38.34 -61 38 C-60.52691406 37.5875 -60.05382812 37.175 -59.56640625 36.75 C-58.90511719 36.1725 -58.24382812 35.595 -57.5625 35 C-56.44875 34.03126953 -56.44875 34.03126953 -55.3125 33.04296875 C-53.87706477 31.77483931 -52.4570218 30.48876851 -51.0625 29.17578125 C-41.4367439 20.20803582 -13.54362628 -4.51454209 0 0 Z " fill="#3F3F3F" transform="translate(551,54)"/>
<path d="M0 0 C1.51595175 3.03190349 0.301394 4.89188306 -0.6953125 8.08203125 C-1.27539062 9.94698242 -1.27539062 9.94698242 -1.8671875 11.84960938 C-2.0744043 12.5021167 -2.28162109 13.15462402 -2.49511719 13.8269043 C-3.10966238 15.76415084 -3.71208246 17.70481954 -4.3125 19.64648438 C-6.5981946 26.93306961 -9.12517292 34.07531755 -11.91992188 41.18481445 C-13.58673711 45.52930959 -14.83395981 49.94333941 -16.10546875 54.41796875 C-17 57 -17 57 -19 59 C-17.98140022 52.19146466 -16.41125205 45.86883485 -14.13671875 39.375 C-12.80021038 35.4068102 -11.65024482 31.40019606 -10.5 27.375 C-8.90333433 21.83879498 -7.15762798 16.4701103 -4.91015625 11.15625 C-3.97402785 8.93846941 -3.13667645 6.69900834 -2.3125 4.4375 C-1 1 -1 1 0 0 Z " fill="#E4E4E4" transform="translate(474,279)"/>
<path d="M0 0 C-2.17013376 0.69754299 -3.5843111 1.10436753 -5.82324219 0.54223633 C-18.19076046 -2.53854632 -33.05914121 -0.49888721 -45.05078125 3.22265625 C-48 4 -48 4 -51 3 C-51.66 2.34 -52.32 1.68 -53 1 C-35.98259656 -3.75892431 -17.00279979 -6.14294702 0 0 Z " fill="#5C5B5B" transform="translate(563,40)"/>
<path d="M0 0 C1.39244995 2.78489989 0.60011193 4.09960989 -0.25 7.0625 C-0.50265625 7.96097656 -0.7553125 8.85945313 -1.015625 9.78515625 C-2.00495832 13.01619323 -3.06192092 16.21715622 -4.13916016 19.41967773 C-5.10185666 22.30531001 -6.03781342 25.1989779 -6.97265625 28.09375 C-7.66916963 30.22919968 -8.36578569 32.36461587 -9.0625 34.5 C-9.41376953 35.59570312 -9.76503906 36.69140625 -10.12695312 37.8203125 C-10.46791016 38.85929687 -10.80886719 39.89828125 -11.16015625 40.96875 C-11.46574463 41.91169922 -11.77133301 42.85464844 -12.08618164 43.82617188 C-13 46 -13 46 -15 47 C-14.29925851 36.66406308 -11.03597953 27.2130103 -7.078125 17.6953125 C-5.24905324 13.1226331 -3.66784466 8.45952844 -2.05078125 3.80859375 C-1 1 -1 1 0 0 Z " fill="#D3D3D3" transform="translate(585,278)"/>
<path d="M0 0 C0.495 0.99 0.495 0.99 1 2 C1.99 2.33 2.98 2.66 4 3 C-9.37013235 16.03125803 -25.04808573 26.15103275 -44 28 C-40.70341395 25.80227596 -37.85042485 24.9578684 -34.0625 23.8125 C-22.12514084 19.98310114 -12.21953188 13.49303969 -3 5 C-2.67 4.34 -2.34 3.68 -2 3 C-1.34 3 -0.68 3 0 3 C0 2.01 0 1.02 0 0 Z " fill="#3F3E3F" transform="translate(460,240)"/>
<path d="M0 0 C1.0725 0.2475 2.145 0.495 3.25 0.75 C4 3 4 3 4.25 5.75 C2.75 8.0625 2.75 8.0625 0.25 9.75 C-3.4375 10.0625 -3.4375 10.0625 -6.75 9.75 C-7.75 8.75 -7.75 8.75 -8.0625 6.4375 C-7.75 3.75 -7.75 3.75 -6.1875 1.375 C-3.75 -0.25 -3.75 -0.25 0 0 Z " fill="#090909" transform="translate(760.75,359.25)"/>
<path d="M0 0 C1.0725 0.2475 2.145 0.495 3.25 0.75 C4 3 4 3 4.25 5.75 C2.75 8.0625 2.75 8.0625 0.25 9.75 C-3.4375 10.0625 -3.4375 10.0625 -6.75 9.75 C-7.75 8.75 -7.75 8.75 -8.0625 6.4375 C-7.75 3.75 -7.75 3.75 -6.1875 1.375 C-3.75 -0.25 -3.75 -0.25 0 0 Z " fill="#090909" transform="translate(365.75,359.25)"/>
<path d="M0 0 C0.66 0.66 1.32 1.32 2 2 C1.61347046 5.98111475 0.58036086 9.63538451 -0.671875 13.421875 C-1.00445312 14.43967041 -1.33703125 15.45746582 -1.6796875 16.50610352 C-2.03289062 17.57658936 -2.38609375 18.6470752 -2.75 19.75 C-6.11884706 30.09814689 -9.20623022 40.48306858 -12 51 C-12.33 51 -12.66 51 -13 51 C-12.44795206 43.4608379 -10.71482821 36.4456123 -8.72631836 29.1628418 C-8.19191009 27.20366768 -7.66840099 25.24183117 -7.14648438 23.27929688 C-5.02794505 15.42122511 -2.67523135 7.68646645 0 0 Z " fill="#565656" transform="translate(381,292)"/>
<path d="M0 0 C0.33 0 0.66 0 1 0 C1.64748402 15.5396164 -0.76803821 28.35050699 -6 43 C-6.99 43 -7.98 43 -9 43 C-8.84144531 42.42636719 -8.68289063 41.85273437 -8.51953125 41.26171875 C-8.00704318 39.39580914 -7.49992297 37.52842251 -6.99609375 35.66015625 C-6.25403732 32.93346263 -5.49418408 30.21440356 -4.72265625 27.49609375 C-2.14663659 18.26395357 -0.19026512 9.63433382 0 0 Z " fill="#484848" transform="translate(571,51)"/>
<path d="M0 0 C1.92942838 2.89414257 3.60810322 5.84412146 5.3125 8.875 C7.85216912 13.27425948 10.26857514 16.60779559 14 20 C14 20.66 14 21.32 14 22 C12.68 22 11.36 22 10 22 C10 21.34 10 20.68 10 20 C9.34 20 8.68 20 8 20 C6.40334196 18.1590771 4.94576905 16.3288668 3.5 14.375 C2.7059375 13.33085937 1.911875 12.28671875 1.09375 11.2109375 C-0.90303757 8.14869985 -2.03147748 5.50563042 -3 2 C-2.01 2 -1.02 2 0 2 C0 1.34 0 0.68 0 0 Z " fill="#313031" transform="translate(451,220)"/>
<path d="M0 0 C0.66 0.33 1.32 0.66 2 1 C1.15695312 1.79664062 0.31390625 2.59328125 -0.5546875 3.4140625 C-1.66198782 4.48382721 -2.76872935 5.55417052 -3.875 6.625 C-4.43058594 7.14707031 -4.98617188 7.66914062 -5.55859375 8.20703125 C-9.0695411 11.63337745 -10.58767131 14.21453678 -12 19 C-12.99 19.66 -13.98 20.32 -15 21 C-15.33 20.34 -15.66 19.68 -16 19 C-19.3 22.3 -22.6 25.6 -26 29 C-26.66 28.67 -27.32 28.34 -28 28 C-27.25556641 27.27296875 -27.25556641 27.27296875 -26.49609375 26.53125 C-23.12677652 23.20668651 -19.84971976 19.88245379 -16.8125 16.25 C-11.73617813 10.31971744 -5.78594006 5.22039704 0 0 Z " fill="#323132" transform="translate(458,71)"/>
<path d="M0 0 C-0.51272461 0.23074219 -1.02544922 0.46148437 -1.55371094 0.69921875 C-11.99118511 5.42950261 -21.66955857 10.30673403 -31 17 C-32.99128846 18.34692704 -34.99472537 19.67388408 -37 21 C-36.62675268 18.55312042 -36.35546151 17.31473509 -34.47216797 15.6472168 C-33.81877441 15.25187744 -33.16538086 14.85653809 -32.4921875 14.44921875 C-31.75943604 14.00094727 -31.02668457 13.55267578 -30.27172852 13.09082031 C-29.48080811 12.62772461 -28.6898877 12.16462891 -27.875 11.6875 C-27.07054443 11.20764648 -26.26608887 10.72779297 -25.43725586 10.23339844 C-20.25065628 7.18852395 -14.99100016 4.33955045 -9.5625 1.75 C-8.94294434 1.45053467 -8.32338867 1.15106934 -7.68505859 0.8425293 C-3.37400468 -1.12466823 -3.37400468 -1.12466823 0 0 Z " fill="#666666" transform="translate(551,54)"/>
<path d="M0 0 C0.74609375 1.703125 0.74609375 1.703125 1 4 C-0.65234375 6.359375 -0.65234375 6.359375 -2.9375 8.75 C-4.06478516 9.94882813 -4.06478516 9.94882813 -5.21484375 11.171875 C-5.80394531 11.77515625 -6.39304687 12.3784375 -7 13 C-7.99 12.67 -8.98 12.34 -10 12 C-8.52278578 8.54798361 -6.56205999 6.35038064 -3.875 3.75 C-3.15054687 3.04359375 -2.42609375 2.3371875 -1.6796875 1.609375 C-1.12539063 1.07828125 -0.57109375 0.5471875 0 0 Z " fill="#232323" transform="translate(442,89)"/>
<path d="M0 0 C1.3494709 2.69894181 0.66874571 3.72118731 -0.21484375 6.5703125 C-0.48876953 7.46621094 -0.76269531 8.36210937 -1.04492188 9.28515625 C-1.33947266 10.22230469 -1.63402344 11.15945313 -1.9375 12.125 C-2.22818359 13.06988281 -2.51886719 14.01476562 -2.81835938 14.98828125 C-3.53906479 17.32762013 -4.26652606 19.66463921 -5 22 C-5.99 21.67 -6.98 21.34 -8 21 C-6.22962267 13.4291181 -3.74139138 6.81731788 0 0 Z " fill="#C3C3C3" transform="translate(474,279)"/>
<path d="M0 0 C1.39244995 2.78489989 0.60011193 4.09960989 -0.25 7.0625 C-0.52972656 8.03960937 -0.80945313 9.01671875 -1.09765625 10.0234375 C-2.31668368 14.04464486 -3.61848782 18.03182671 -5 22 C-5.99 21.67 -6.98 21.34 -8 21 C-2.92307692 2.92307692 -2.92307692 2.92307692 0 0 Z " fill="#C0C0C0" transform="translate(585,278)"/>
<path d="M0 0 C0.66 0.66 1.32 1.32 2 2 C-18.99594069 13.34915713 -18.99594069 13.34915713 -27 11 C-25.80503906 10.62488281 -24.61007812 10.24976563 -23.37890625 9.86328125 C-15.11475956 7.21965693 -7.39094695 4.65355919 0 0 Z " fill="#676767" transform="translate(443,256)"/>
<path d="M0 0 C0.33 0 0.66 0 1 0 C0.39891424 5.65020618 -1.07528683 10.66164461 -3 16 C-3.66 16 -4.32 16 -5 16 C-4.58846263 11.02906176 -4.20399168 6.55491614 -2 2 C-1.34 2 -0.68 2 0 2 C0 1.34 0 0.68 0 0 Z " fill="#343334" transform="translate(387,278)"/>
<path d="M0 0 C0.97961897 2.93885692 1.03775226 4.05758525 0.66015625 7.01171875 C0.56669922 7.76904297 0.47324219 8.52636719 0.37695312 9.30664062 C0.27318359 10.09232422 0.16941406 10.87800781 0.0625 11.6875 C-0.03740234 12.48478516 -0.13730469 13.28207031 -0.24023438 14.10351562 C-0.48748847 16.06977435 -0.74295637 18.03499706 -1 20 C-3.21934455 16.67098317 -3.27129898 15.51206363 -3.25 11.625 C-3.25515625 10.68914062 -3.2603125 9.75328125 -3.265625 8.7890625 C-2.96066877 5.58702208 -2.35270927 2.35270927 0 0 Z " fill="#2F2F2F" transform="translate(376,196)"/>
<path d="M0 0 C-0.58395206 3.51149841 -1.83279645 5.29031758 -4.3125 7.8125 C-4.90675781 8.43769531 -5.50101562 9.06289062 -6.11328125 9.70703125 C-8 11 -8 11 -10.23046875 10.69921875 C-10.81441406 10.46847656 -11.39835937 10.23773438 -12 10 C-10.38113585 8.32737283 -8.7547271 6.66204463 -7.125 5 C-6.22007812 4.071875 -5.31515625 3.14375 -4.3828125 2.1875 C-2 0 -2 0 0 0 Z " fill="#2E2E2E" transform="translate(492,93)"/>
<path d="M0 0 C0.33 0 0.66 0 1 0 C0.48594831 4.96916636 -0.23384882 9.29026351 -2 14 C-2.99 14 -3.98 14 -5 14 C-4.04408477 8.83805777 -3.19653259 4.30837002 0 0 Z " fill="#CFCFCF" transform="translate(467,299)"/>
<path d="M0 0 C0.33 0.99 0.66 1.98 1 3 C1.66 3.33 2.32 3.66 3 4 C2.67 5.65 2.34 7.3 2 9 C1.01 9 0.02 9 -1 9 C-2.33981486 9.3062434 -3.67511887 9.63451555 -5 10 C-3.66511872 6.40608886 -2.03977277 3.24509304 0 0 Z " fill="#343233" transform="translate(412,123)"/>
<path d="M0 0 C0.66 0.33 1.32 0.66 2 1 C0.61811547 4.21043882 -0.92421903 6.04936365 -3.625 8.25 C-4.25664062 8.77078125 -4.88828125 9.2915625 -5.5390625 9.828125 C-6.02117187 10.21484375 -6.50328125 10.6015625 -7 11 C-6.68232368 5.59950264 -3.80003673 3.47662935 0 0 Z " fill="#232222" transform="translate(454,77)"/>
<path d="M0 0 C0.33 0 0.66 0 1 0 C1.02706445 2.89589652 1.04687029 5.79153795 1.0625 8.6875 C1.07087891 9.50412109 1.07925781 10.32074219 1.08789062 11.16210938 C1.10442051 15.24499084 1.03035098 19.01651707 0 23 C-2 21 -2 21 -2.04345703 18.84521484 C-1.94919434 17.97590332 -1.85493164 17.1065918 -1.7578125 16.2109375 C-1.66113281 15.26992187 -1.56445312 14.32890625 -1.46484375 13.359375 C-1.35269531 12.37453125 -1.24054687 11.3896875 -1.125 10.375 C-1.02058594 9.38242187 -0.91617188 8.38984375 -0.80859375 7.3671875 C-0.5487258 4.91025414 -0.27880162 2.45484508 0 0 Z " fill="#525252" transform="translate(571,51)"/>
<path d="M0 0 C0.33 0.99 0.66 1.98 1 3 C-0.21484375 5.04296875 -0.21484375 5.04296875 -1.9375 7.1875 C-2.50339844 7.90292969 -3.06929688 8.61835938 -3.65234375 9.35546875 C-4.09707031 9.89816406 -4.54179687 10.44085938 -5 11 C-5.66 10.67 -6.32 10.34 -7 10 C-6.84518205 7.29068581 -6.51827919 5.53415961 -4.59765625 3.5546875 C-3.10228292 2.32320358 -1.5537076 1.1570163 0 0 Z " fill="#272626" transform="translate(468,120)"/>
<path d="M0 0 C0.66 0.33 1.32 0.66 2 1 C-1.96 4.96 -5.92 8.92 -10 13 C-10.99 12.67 -11.98 12.34 -13 12 C-8.71 8.04 -4.42 4.08 0 0 Z " fill="#3D3C3D" transform="translate(458,71)"/>
<path d="M0 0 C0.33 0 0.66 0 1 0 C1 2.64 1 5.28 1 8 C0.34 7.01 -0.32 6.02 -1 5 C-2.98 6.98 -4.96 8.96 -7 11 C-7.66 10.67 -8.32 10.34 -9 10 C-7.52417192 8.33037631 -6.04425109 6.6643694 -4.5625 5 C-3.73878906 4.071875 -2.91507812 3.14375 -2.06640625 2.1875 C-1.04353516 1.1046875 -1.04353516 1.1046875 0 0 Z " fill="#C3C3C3" transform="translate(350,415)"/>
<path d="M0 0 C4.38227147 8.13850416 4.38227147 8.13850416 3.55078125 12.1875 C3.36902344 12.785625 3.18726563 13.38375 3 14 C1.10931758 11.08784151 -0.6542729 8.20615459 -2 5 C-1.3125 1.9375 -1.3125 1.9375 0 0 Z " fill="#4D4D4D" transform="translate(395,214)"/>
<path d="M0 0 C2.01136276 2.55991624 3.62845496 5.04590299 5 8 C3.68 8 2.36 8 1 8 C0.67 8.66 0.34 9.32 0 10 C-1.125 3.375 -1.125 3.375 0 0 Z " fill="#363435" transform="translate(452,206)"/>
<path d="M0 0 C0.33 0 0.66 0 1 0 C0.67 2.97 0.34 5.94 0 9 C-1.32 9.33 -2.64 9.66 -4 10 C-3.52449439 8.51965236 -3.04448784 7.04074979 -2.5625 5.5625 C-2.29566406 4.73878906 -2.02882813 3.91507812 -1.75390625 3.06640625 C-1 1 -1 1 0 0 Z " fill="#3F3F3F" transform="translate(566,84)"/>
<path d="M0 0 C2.40072955 2.88087546 4.47291037 5.56404834 6 9 C5.34 9 4.68 9 4 9 C3.67 9.99 3.34 10.98 3 12 C2.49440092 10.56445975 1.9957251 9.1264798 1.5 7.6875 C1.2215625 6.88699219 0.943125 6.08648437 0.65625 5.26171875 C0 3 0 3 0 0 Z " fill="#E0DFE0" transform="translate(449,211)"/>
<path d="M0 0 C0.33 0.66 0.66 1.32 1 2 C0.67 2.66 0.34 3.32 0 4 C0.66 4 1.32 4 2 4 C1.67 5.65 1.34 7.3 1 9 C0.34 8.34 -0.32 7.68 -1 7 C-2.32 7.99 -3.64 8.98 -5 10 C-3.66511872 6.40608886 -2.03977277 3.24509304 0 0 Z " fill="#363535" transform="translate(539,139)"/>
<path d="M0 0 C0 3.80345877 -1.13786331 4.77701015 -3.5 7.6875 C-4.47453125 8.89986328 -4.47453125 8.89986328 -5.46875 10.13671875 C-5.9740625 10.75160156 -6.479375 11.36648438 -7 12 C-7 7.3908992 -4.32534971 4.42001754 -1.25 1.125 C-0.8375 0.75375 -0.425 0.3825 0 0 Z " fill="#BBBBBB" transform="translate(477,362)"/>
<path d="M0 0 C0.66 0.33 1.32 0.66 2 1 C1.01 2.98 0.02 4.96 -1 7 C-1.66 6.34 -2.32 5.68 -3 5 C-4.32 5.99 -5.64 6.98 -7 8 C-6.3125 5.5625 -6.3125 5.5625 -5 3 C-2.375 2.1875 -2.375 2.1875 0 2 C0 1.34 0 0.68 0 0 Z " fill="#353434" transform="translate(436,170)"/>
<path d="M0 0 C1.2077558 3.62326739 0.54311128 4.64146369 -1 8 C-1.99 8 -2.98 8 -4 8 C-3.6875 5.125 -3.6875 5.125 -3 2 C-2.01 1.34 -1.02 0.68 0 0 Z " fill="#2C2C2C" transform="translate(560,102)"/>
<path d="M0 0 C0.66 0.33 1.32 0.66 2 1 C1.54965877 2.62723299 1.08944646 4.25173664 0.625 5.875 C0.36976563 6.77992188 0.11453125 7.68484375 -0.1484375 8.6171875 C-1 11 -1 11 -3 13 C-2.69128878 11.20767663 -2.37790936 9.41615679 -2.0625 7.625 C-1.88847656 6.62726563 -1.71445312 5.62953125 -1.53515625 4.6015625 C-1 2 -1 2 0 0 Z " fill="#A5A5A5" transform="translate(458,325)"/>
<path d="M0 0 C1.39195915 4.17587745 -0.17676781 6.13474776 -2 10 C-2.33 10 -2.66 10 -3 10 C-2.88637738 8.5199159 -2.75877092 7.04089926 -2.625 5.5625 C-2.55539062 4.73878906 -2.48578125 3.91507812 -2.4140625 3.06640625 C-2.27742187 2.38449219 -2.14078125 1.70257813 -2 1 C-1.34 0.67 -0.68 0.34 0 0 Z " fill="#CFCFCF" transform="translate(573,315)"/>
<path d="M0 0 C0.125 2.875 0.125 2.875 0 6 C-0.66 6.66 -1.32 7.32 -2 8 C-2.66 7.67 -3.32 7.34 -4 7 C-3.625 4.0625 -3.625 4.0625 -3 1 C-1 0 -1 0 0 0 Z " fill="#242223" transform="translate(543,136)"/>
<path d="M0 0 C0.33 0 0.66 0 1 0 C0.67 2.31 0.34 4.62 0 7 C-0.99 7.33 -1.98 7.66 -3 8 C-2.67 6.02 -2.34 4.04 -2 2 C-1.34 2 -0.68 2 0 2 C0 1.34 0 0.68 0 0 Z " fill="#2C2A2B" transform="translate(387,278)"/>
<path d="M0 0 C0.66 0.33 1.32 0.66 2 1 C1.67 2.98 1.34 4.96 1 7 C0.01 6.67 -0.98 6.34 -2 6 C-1.125 1.125 -1.125 1.125 0 0 Z " fill="#262526" transform="translate(409,221)"/>
<path d="M0 0 C1 4 1 4 0 7 C-0.66 7 -1.32 7 -2 7 C-3.98 7.99 -3.98 7.99 -6 9 C-4.02 6.03 -2.04 3.06 0 0 Z " fill="#3D3C3C" transform="translate(461,126)"/>
<path d="M0 0 C2 3 2 3 1.7578125 5.26171875 C1.54898437 6.06222656 1.34015625 6.86273438 1.125 7.6875 C0.92132813 8.49574219 0.71765625 9.30398437 0.5078125 10.13671875 C0.25644531 11.05904297 0.25644531 11.05904297 0 12 C-0.33 12 -0.66 12 -1 12 C-1.14285714 3.42857143 -1.14285714 3.42857143 0 0 Z " fill="#474646" transform="translate(445,190)"/>
<path d="M0 0 C0.66 0.33 1.32 0.66 2 1 C0.7260411 3.03833424 -0.61061923 5.03852126 -2 7 C-2.66 7 -3.32 7 -4 7 C-3.43628586 3.73045798 -2.50037734 2.17424117 0 0 Z " fill="#292829" transform="translate(481,55)"/>
<path d="M0 0 C2 3 2 3 2 5 C1.34 5 0.68 5 0 5 C-0.33 5.99 -0.66 6.98 -1 8 C-1.66 6.02 -2.32 4.04 -3 2 C-2.01 2 -1.02 2 0 2 C0 1.34 0 0.68 0 0 Z " fill="#3F3E3F" transform="translate(451,220)"/>
<path d="M0 0 C0.6875 1.6875 0.6875 1.6875 1 4 C-0.4375 6.75 -0.4375 6.75 -2 9 C-3 6 -3 6 -1.5625 2.8125 C-1.046875 1.884375 -0.53125 0.95625 0 0 Z " fill="#F3F3F3" transform="translate(575,307)"/>
<path d="M0 0 C-2.39509338 2.89932357 -4.31245243 3.50168276 -8 4 C-7.67 3.01 -7.34 2.02 -7 1 C-4.53721199 -0.231394 -2.7204945 -0.07159196 0 0 Z " fill="#252525" transform="translate(514,42)"/>
</svg>
