<svg xmlns="http://www.w3.org/2000/svg" xmlns:xlink="http://www.w3.org/1999/xlink" width="500" zoomAndPan="magnify" viewBox="0 0 375 225" height="300" preserveAspectRatio="xMidYMid meet" version="1.2"><defs><clipPath id="1343db2388"><path d="M 147.992188 26 L 200 26 L 200 104.667969 L 147.992188 104.667969 Z M 147.992188 26 "/></clipPath><clipPath id="2607de87d9"><path d="M 149 22.5 L 202 22.5 L 202 80 L 149 80 Z M 149 22.5 "/></clipPath><clipPath id="ef8fc998e8"><path d="M 160 24 L 202.53125 24 L 202.53125 84 L 160 84 Z M 160 24 "/></clipPath></defs><g id="e2f68ff122"><g clip-rule="nonzero" clip-path="url(#1343db2388)"><path style=" stroke:none;fill-rule:nonzero;fill:#231f20;fill-opacity:1;" d="M 147.992188 104.644531 C 147.992188 104.644531 165.628906 36.449219 199.105469 26.027344 C 172.878906 32.957031 154.046875 75.519531 147.992188 104.644531 "/></g><g clip-rule="nonzero" clip-path="url(#2607de87d9)"><path style=" stroke:none;fill-rule:nonzero;fill:#231f20;fill-opacity:1;" d="M 154.015625 79.25 C 153.773438 78.9375 153.542969 78.613281 153.324219 78.28125 C 153.105469 77.953125 152.890625 77.617188 152.6875 77.277344 C 152.480469 76.9375 152.285156 76.589844 152.097656 76.242188 L 151.820312 75.710938 L 151.558594 75.175781 L 151.308594 74.632812 C 151.222656 74.453125 151.148438 74.269531 151.070312 74.085938 C 150.988281 73.902344 150.921875 73.714844 150.847656 73.53125 C 150.773438 73.34375 150.707031 73.15625 150.640625 72.96875 C 150.570312 72.78125 150.503906 72.589844 150.449219 72.398438 C 150.390625 72.207031 150.324219 72.019531 150.273438 71.824219 L 150.117188 71.242188 L 149.984375 70.65625 C 149.9375 70.460938 149.910156 70.261719 149.871094 70.066406 L 149.816406 69.765625 L 149.777344 69.46875 C 149.714844 69.070312 149.691406 68.664062 149.660156 68.261719 L 149.640625 67.5 L 149.648438 67.347656 L 149.65625 67.042969 L 149.671875 66.738281 C 149.679688 66.636719 149.691406 66.539062 149.703125 66.4375 L 149.734375 66.132812 C 149.746094 66.03125 149.753906 65.929688 149.773438 65.828125 L 149.878906 65.226562 C 149.917969 65.023438 149.976562 64.828125 150.023438 64.628906 C 150.046875 64.527344 150.070312 64.425781 150.101562 64.328125 L 150.195312 64.035156 L 150.292969 63.742188 L 150.34375 63.597656 C 150.359375 63.546875 150.382812 63.503906 150.402344 63.457031 L 150.640625 62.886719 C 150.679688 62.789062 150.730469 62.699219 150.777344 62.609375 L 150.917969 62.335938 L 151.0625 62.058594 C 151.113281 61.96875 151.167969 61.886719 151.222656 61.796875 L 151.550781 61.273438 L 152.132812 60.347656 L 152.371094 61.453125 C 152.40625 61.601562 152.445312 61.769531 152.484375 61.929688 C 152.527344 62.09375 152.570312 62.253906 152.613281 62.414062 L 152.753906 62.898438 L 152.898438 63.378906 L 153.054688 63.855469 L 153.21875 64.332031 C 153.277344 64.488281 153.335938 64.644531 153.394531 64.804688 C 153.453125 64.960938 153.515625 65.117188 153.578125 65.269531 C 153.640625 65.425781 153.703125 65.582031 153.769531 65.734375 L 153.972656 66.195312 L 154.183594 66.648438 L 154.292969 66.875 L 154.40625 67.097656 L 154.636719 67.539062 L 154.878906 67.976562 L 155.003906 68.191406 L 155.132812 68.402344 L 155.394531 68.828125 L 154.375 69.308594 C 154.355469 69.242188 154.339844 69.199219 154.324219 69.148438 L 154.28125 68.996094 C 154.25 68.898438 154.230469 68.800781 154.203125 68.703125 C 154.175781 68.601562 154.15625 68.503906 154.132812 68.40625 C 154.113281 68.308594 154.089844 68.210938 154.074219 68.113281 L 154.015625 67.816406 L 153.96875 67.523438 C 153.933594 67.328125 153.910156 67.128906 153.886719 66.933594 C 153.792969 66.144531 153.746094 65.355469 153.734375 64.566406 C 153.726562 62.992188 153.867188 61.417969 154.128906 59.871094 C 154.386719 58.320312 154.773438 56.796875 155.265625 55.308594 L 155.445312 54.75 L 155.851562 53.648438 L 155.949219 53.371094 L 156.0625 53.101562 L 156.507812 52.015625 C 156.667969 51.660156 156.835938 51.304688 156.996094 50.949219 C 157.082031 50.773438 157.15625 50.59375 157.246094 50.417969 L 157.511719 49.898438 L 157.777344 49.375 C 157.863281 49.199219 157.949219 49.023438 158.046875 48.855469 C 158.429688 48.175781 158.792969 47.484375 159.207031 46.824219 C 159.410156 46.492188 159.609375 46.15625 159.816406 45.828125 L 160.460938 44.851562 L 160.785156 44.363281 C 160.890625 44.203125 161.007812 44.046875 161.121094 43.886719 L 161.796875 42.933594 C 162.019531 42.613281 162.261719 42.3125 162.496094 42 L 163.207031 41.074219 C 163.695312 40.46875 164.195312 39.875 164.6875 39.273438 L 166.230469 37.527344 L 167.832031 35.835938 L 168.046875 35.621094 L 168.25 35.421875 L 168.664062 35.015625 L 169.484375 34.203125 C 169.621094 34.070312 169.769531 33.9375 169.910156 33.804688 L 170.34375 33.410156 L 171.207031 32.617188 C 171.796875 32.105469 172.394531 31.609375 172.988281 31.105469 L 173.90625 30.386719 L 174.367188 30.027344 C 174.523438 29.90625 174.675781 29.789062 174.835938 29.675781 L 175.789062 29 L 176.265625 28.660156 L 176.757812 28.34375 L 177.734375 27.707031 C 177.898438 27.597656 178.070312 27.503906 178.238281 27.402344 L 178.742188 27.105469 C 179.40625 26.695312 180.101562 26.34375 180.789062 25.972656 C 180.960938 25.878906 181.136719 25.800781 181.3125 25.714844 L 181.84375 25.464844 L 182.371094 25.214844 C 182.550781 25.132812 182.730469 25.0625 182.910156 24.984375 C 184.34375 24.359375 185.828125 23.855469 187.335938 23.457031 C 188.84375 23.054688 190.386719 22.785156 191.941406 22.65625 C 193.492188 22.523438 195.058594 22.535156 196.597656 22.722656 C 197.371094 22.808594 198.136719 22.953125 198.886719 23.136719 C 199.640625 23.324219 200.382812 23.546875 201.085938 23.871094 C 200.363281 23.601562 199.609375 23.425781 198.855469 23.289062 C 198.667969 23.253906 198.476562 23.222656 198.285156 23.195312 C 198.097656 23.171875 197.910156 23.136719 197.71875 23.117188 L 197.144531 23.054688 L 196.574219 23.011719 C 196.382812 22.996094 196.191406 22.992188 195.996094 22.984375 C 195.808594 22.980469 195.617188 22.96875 195.425781 22.96875 C 195.042969 22.972656 194.660156 22.964844 194.277344 22.988281 L 193.707031 23.011719 C 193.515625 23.023438 193.324219 23.042969 193.132812 23.058594 C 192.945312 23.074219 192.753906 23.085938 192.5625 23.109375 L 191.996094 23.179688 C 190.480469 23.375 188.992188 23.714844 187.535156 24.15625 C 186.078125 24.597656 184.652344 25.140625 183.28125 25.800781 C 183.105469 25.878906 182.933594 25.957031 182.761719 26.039062 L 182.253906 26.300781 L 181.75 26.5625 C 181.578125 26.652344 181.40625 26.730469 181.242188 26.828125 C 180.582031 27.207031 179.914062 27.566406 179.277344 27.984375 L 178.792969 28.285156 C 178.632812 28.390625 178.464844 28.484375 178.3125 28.59375 L 177.371094 29.242188 L 176.902344 29.5625 L 176.445312 29.90625 L 175.53125 30.589844 C 175.378906 30.703125 175.230469 30.824219 175.082031 30.945312 L 174.640625 31.304688 L 173.75 32.023438 C 173.179688 32.527344 172.601562 33.019531 172.035156 33.53125 L 171.210938 34.3125 L 170.796875 34.699219 C 170.660156 34.832031 170.519531 34.957031 170.386719 35.097656 L 169.574219 35.921875 L 169.171875 36.332031 L 168.96875 36.539062 L 168.828125 36.679688 C 168.824219 36.683594 168.835938 36.671875 168.824219 36.683594 L 168.777344 36.734375 L 167.226562 38.417969 L 165.726562 40.144531 C 165.246094 40.738281 164.761719 41.324219 164.289062 41.921875 L 163.597656 42.828125 C 163.371094 43.132812 163.132812 43.429688 162.917969 43.742188 L 162.257812 44.671875 C 162.148438 44.828125 162.039062 44.980469 161.933594 45.140625 L 161.621094 45.617188 L 160.996094 46.566406 C 160.792969 46.886719 160.601562 47.214844 160.402344 47.539062 C 159.996094 48.179688 159.644531 48.851562 159.269531 49.507812 C 159.175781 49.671875 159.09375 49.84375 159.003906 50.011719 L 158.746094 50.515625 L 158.488281 51.023438 C 158.402344 51.191406 158.328125 51.363281 158.246094 51.535156 L 157.773438 52.566406 L 157.332031 53.609375 L 157.222656 53.871094 L 157.125 54.132812 L 156.726562 55.195312 L 156.546875 55.730469 C 156.070312 57.160156 155.675781 58.617188 155.402344 60.09375 C 155.128906 61.570312 154.972656 63.070312 154.957031 64.566406 C 154.957031 65.3125 154.988281 66.058594 155.066406 66.800781 C 155.085938 66.984375 155.105469 67.167969 155.132812 67.351562 L 155.171875 67.628906 L 155.21875 67.898438 C 155.230469 67.992188 155.25 68.082031 155.265625 68.171875 C 155.285156 68.261719 155.300781 68.351562 155.320312 68.4375 C 155.34375 68.527344 155.359375 68.617188 155.382812 68.703125 L 155.417969 68.832031 L 155.449219 68.945312 L 156.707031 73.339844 L 154.433594 69.425781 L 154.167969 68.96875 L 154.035156 68.742188 L 153.910156 68.507812 L 153.664062 68.042969 L 153.433594 67.570312 L 153.320312 67.332031 L 153.214844 67.09375 L 153.003906 66.613281 L 152.808594 66.128906 C 152.738281 65.96875 152.679688 65.804688 152.621094 65.640625 C 152.558594 65.476562 152.496094 65.316406 152.441406 65.148438 C 152.382812 64.984375 152.324219 64.820312 152.273438 64.65625 L 152.113281 64.160156 L 151.964844 63.660156 C 151.867188 63.324219 151.777344 62.988281 151.695312 62.648438 C 151.65625 62.480469 151.617188 62.3125 151.578125 62.140625 C 151.542969 61.96875 151.507812 61.800781 151.476562 61.617188 L 152.296875 61.796875 L 151.976562 62.265625 C 151.925781 62.347656 151.867188 62.421875 151.820312 62.503906 L 151.679688 62.753906 L 151.539062 63 C 151.496094 63.082031 151.441406 63.164062 151.40625 63.25 L 151.167969 63.765625 C 151.148438 63.8125 151.125 63.851562 151.109375 63.898438 L 151.058594 64.03125 L 150.960938 64.296875 L 150.859375 64.566406 C 150.828125 64.65625 150.804688 64.746094 150.777344 64.839844 C 150.726562 65.023438 150.667969 65.203125 150.625 65.390625 L 150.503906 65.949219 C 150.480469 66.042969 150.472656 66.136719 150.457031 66.234375 L 150.417969 66.515625 C 150.40625 66.613281 150.390625 66.707031 150.378906 66.800781 L 150.355469 67.089844 L 150.332031 67.375 L 150.320312 67.519531 L 150.320312 67.664062 L 150.304688 68.242188 C 150.320312 68.628906 150.324219 69.015625 150.367188 69.402344 L 150.390625 69.691406 L 150.429688 69.980469 C 150.457031 70.171875 150.476562 70.367188 150.511719 70.558594 L 150.617188 71.132812 L 150.742188 71.703125 C 150.785156 71.894531 150.839844 72.082031 150.886719 72.273438 C 150.933594 72.460938 150.992188 72.648438 151.046875 72.835938 C 151.101562 73.023438 151.15625 73.210938 151.222656 73.398438 C 151.285156 73.582031 151.339844 73.773438 151.410156 73.957031 C 151.476562 74.140625 151.542969 74.324219 151.613281 74.507812 L 151.828125 75.058594 L 152.0625 75.597656 L 152.304688 76.136719 L 152.558594 76.671875 C 152.648438 76.847656 152.734375 77.023438 152.828125 77.199219 C 153.007812 77.550781 153.199219 77.894531 153.394531 78.238281 C 153.59375 78.578125 153.796875 78.921875 154.015625 79.25 "/></g><g clip-rule="nonzero" clip-path="url(#ef8fc998e8)"><path style=" stroke:none;fill-rule:nonzero;fill:#231f20;fill-opacity:1;" d="M 160.175781 83.546875 C 160.5 83.515625 160.820312 83.464844 161.136719 83.40625 C 161.453125 83.347656 161.769531 83.277344 162.082031 83.199219 C 162.394531 83.121094 162.703125 83.03125 163.011719 82.9375 C 163.316406 82.839844 163.621094 82.738281 163.925781 82.628906 L 164.375 82.460938 C 164.523438 82.402344 164.671875 82.339844 164.820312 82.28125 C 165.117188 82.15625 165.410156 82.027344 165.699219 81.890625 L 165.914062 81.785156 L 166.128906 81.675781 C 166.273438 81.605469 166.417969 81.535156 166.558594 81.457031 L 166.980469 81.230469 L 167.394531 80.992188 C 167.535156 80.914062 167.667969 80.828125 167.804688 80.746094 C 167.941406 80.660156 168.078125 80.578125 168.210938 80.492188 L 168.613281 80.226562 L 169.199219 79.816406 L 169.394531 79.675781 L 169.777344 79.386719 L 170.148438 79.089844 L 170.335938 78.941406 L 170.519531 78.789062 L 170.882812 78.476562 C 171.003906 78.375 171.117188 78.265625 171.238281 78.160156 C 171.476562 77.949219 171.703125 77.726562 171.933594 77.507812 L 172.105469 77.339844 L 172.269531 77.167969 L 172.605469 76.828125 C 172.824219 76.597656 173.03125 76.359375 173.246094 76.125 L 173.28125 76.707031 C 173.167969 76.609375 173.074219 76.523438 172.976562 76.429688 C 172.878906 76.335938 172.785156 76.246094 172.691406 76.148438 C 172.503906 75.960938 172.320312 75.765625 172.144531 75.570312 C 171.96875 75.371094 171.800781 75.167969 171.632812 74.960938 C 171.550781 74.859375 171.46875 74.753906 171.390625 74.648438 L 171.152344 74.328125 C 170.996094 74.113281 170.847656 73.898438 170.703125 73.671875 C 170.5625 73.449219 170.421875 73.222656 170.292969 72.992188 C 170.222656 72.878906 170.160156 72.761719 170.097656 72.640625 C 170.035156 72.523438 169.972656 72.410156 169.914062 72.289062 C 169.855469 72.167969 169.796875 72.050781 169.738281 71.929688 L 169.574219 71.566406 C 169.519531 71.441406 169.472656 71.316406 169.421875 71.195312 C 169.371094 71.070312 169.324219 70.945312 169.28125 70.820312 C 169.183594 70.570312 169.105469 70.316406 169.023438 70.058594 C 168.984375 69.933594 168.953125 69.800781 168.917969 69.671875 L 168.863281 69.476562 L 168.820312 69.28125 C 168.792969 69.152344 168.757812 69.019531 168.734375 68.890625 L 168.664062 68.492188 C 168.636719 68.359375 168.621094 68.226562 168.605469 68.09375 C 168.589844 67.960938 168.566406 67.828125 168.554688 67.691406 C 168.535156 67.421875 168.507812 67.15625 168.503906 66.886719 C 168.5 66.75 168.492188 66.617188 168.496094 66.480469 L 168.503906 66.078125 C 168.507812 65.808594 168.539062 65.539062 168.554688 65.269531 L 168.730469 62.625 L 169.699219 65.132812 C 169.757812 65.28125 169.824219 65.445312 169.890625 65.601562 C 169.957031 65.761719 170.027344 65.917969 170.101562 66.074219 C 170.242188 66.390625 170.394531 66.703125 170.550781 67.011719 C 170.867188 67.625 171.210938 68.226562 171.582031 68.800781 C 171.957031 69.375 172.359375 69.925781 172.804688 70.421875 C 173.253906 70.917969 173.738281 71.367188 174.269531 71.699219 C 174.535156 71.867188 174.8125 72 175.089844 72.101562 C 175.371094 72.195312 175.65625 72.253906 175.9375 72.265625 C 176.082031 72.269531 176.222656 72.261719 176.363281 72.246094 C 176.433594 72.238281 176.503906 72.222656 176.574219 72.210938 L 176.679688 72.1875 L 176.734375 72.175781 C 176.765625 72.167969 176.707031 72.183594 176.71875 72.179688 L 176.734375 72.175781 L 176.765625 72.164062 C 176.789062 72.15625 176.8125 72.148438 176.828125 72.144531 C 176.835938 72.140625 176.84375 72.136719 176.851562 72.132812 C 176.859375 72.128906 176.863281 72.128906 176.878906 72.121094 L 176.921875 72.101562 C 176.949219 72.089844 176.976562 72.074219 177.007812 72.054688 C 177.039062 72.039062 177.070312 72.023438 177.101562 72 C 177.226562 71.929688 177.355469 71.835938 177.484375 71.742188 C 178 71.351562 178.5 70.871094 178.984375 70.378906 C 179.472656 69.886719 179.945312 69.371094 180.40625 68.84375 C 181.328125 67.792969 182.210938 66.691406 183.078125 65.578125 C 183.945312 64.464844 184.785156 63.332031 185.609375 62.183594 C 186.433594 61.039062 187.246094 59.878906 188.035156 58.707031 C 188.824219 57.53125 189.601562 56.351562 190.363281 55.160156 C 191.125 53.96875 191.867188 52.765625 192.59375 51.550781 C 193.320312 50.339844 194.023438 49.113281 194.71875 47.878906 C 195.410156 46.648438 196.078125 45.402344 196.722656 44.144531 C 197.042969 43.515625 197.359375 42.882812 197.664062 42.246094 C 197.972656 41.613281 198.277344 40.972656 198.570312 40.332031 C 199.15625 39.046875 199.707031 37.746094 200.203125 36.429688 C 200.703125 35.109375 201.15625 33.773438 201.515625 32.414062 C 201.871094 31.050781 202.15625 29.667969 202.242188 28.261719 C 202.265625 27.914062 202.273438 27.5625 202.265625 27.210938 C 202.253906 26.859375 202.234375 26.507812 202.1875 26.15625 C 202.097656 25.460938 201.925781 24.769531 201.621094 24.125 C 201.976562 24.742188 202.199219 25.433594 202.339844 26.132812 C 202.476562 26.835938 202.53125 27.554688 202.527344 28.273438 C 202.523438 29.707031 202.320312 31.132812 202.019531 32.53125 C 201.71875 33.929688 201.332031 35.308594 200.878906 36.667969 C 200.425781 38.023438 199.917969 39.359375 199.375 40.679688 C 199.101562 41.339844 198.824219 41.996094 198.53125 42.648438 C 198.238281 43.300781 197.941406 43.945312 197.632812 44.589844 C 197.019531 45.878906 196.378906 47.152344 195.714844 48.417969 C 195.050781 49.679688 194.359375 50.929688 193.648438 52.164062 C 192.9375 53.402344 192.207031 54.625 191.457031 55.839844 C 190.710938 57.054688 189.945312 58.261719 189.15625 59.449219 C 188.367188 60.636719 187.5625 61.820312 186.734375 62.980469 C 185.90625 64.144531 185.054688 65.296875 184.179688 66.429688 C 183.304688 67.5625 182.398438 68.671875 181.449219 69.753906 C 180.972656 70.296875 180.480469 70.828125 179.96875 71.34375 C 179.453125 71.863281 178.917969 72.367188 178.296875 72.828125 C 178.140625 72.945312 177.980469 73.058594 177.796875 73.164062 C 177.753906 73.191406 177.707031 73.21875 177.65625 73.242188 C 177.609375 73.269531 177.5625 73.296875 177.507812 73.320312 L 177.429688 73.355469 C 177.40625 73.367188 177.367188 73.382812 177.335938 73.394531 L 177.234375 73.433594 L 177.167969 73.453125 L 177.136719 73.464844 L 177.117188 73.46875 C 177.121094 73.46875 177.054688 73.488281 177.074219 73.480469 L 176.996094 73.5 L 176.839844 73.535156 C 176.734375 73.550781 176.628906 73.570312 176.523438 73.582031 C 176.3125 73.605469 176.097656 73.613281 175.882812 73.605469 C 175.457031 73.585938 175.035156 73.496094 174.644531 73.355469 C 174.253906 73.214844 173.890625 73.027344 173.554688 72.808594 C 172.886719 72.371094 172.332031 71.835938 171.839844 71.269531 C 171.34375 70.699219 170.917969 70.09375 170.523438 69.46875 C 170.132812 68.847656 169.785156 68.207031 169.460938 67.550781 C 169.300781 67.226562 169.148438 66.894531 169.003906 66.5625 C 168.929688 66.394531 168.859375 66.226562 168.789062 66.058594 C 168.722656 65.886719 168.65625 65.722656 168.589844 65.539062 L 169.730469 65.398438 L 169.699219 65.765625 C 169.683594 65.886719 169.671875 66.007812 169.667969 66.128906 L 169.652344 66.496094 C 169.644531 66.617188 169.652344 66.742188 169.648438 66.863281 C 169.644531 67.109375 169.664062 67.351562 169.675781 67.597656 C 169.683594 67.71875 169.699219 67.839844 169.710938 67.960938 C 169.722656 68.082031 169.734375 68.207031 169.753906 68.328125 L 169.808594 68.691406 C 169.828125 68.8125 169.855469 68.929688 169.878906 69.050781 L 169.914062 69.234375 L 169.957031 69.410156 C 169.988281 69.53125 170.015625 69.652344 170.046875 69.769531 C 170.113281 70.007812 170.179688 70.242188 170.261719 70.476562 C 170.300781 70.59375 170.339844 70.710938 170.386719 70.828125 C 170.429688 70.941406 170.46875 71.058594 170.519531 71.171875 L 170.660156 71.515625 C 170.710938 71.628906 170.761719 71.742188 170.816406 71.855469 C 170.863281 71.96875 170.921875 72.078125 170.976562 72.191406 C 171.03125 72.300781 171.089844 72.410156 171.148438 72.519531 C 171.265625 72.738281 171.390625 72.957031 171.515625 73.167969 L 171.714844 73.488281 L 171.917969 73.800781 L 172.128906 74.109375 L 172.347656 74.414062 C 172.5 74.613281 172.652344 74.8125 172.8125 75.003906 C 172.96875 75.199219 173.132812 75.386719 173.300781 75.570312 C 173.386719 75.660156 173.472656 75.75 173.558594 75.839844 C 173.640625 75.925781 173.734375 76.019531 173.816406 76.089844 L 174.132812 76.386719 L 173.851562 76.671875 C 173.617188 76.90625 173.394531 77.140625 173.160156 77.371094 L 172.804688 77.710938 L 172.625 77.878906 L 172.441406 78.042969 C 172.199219 78.261719 171.953125 78.484375 171.699219 78.6875 C 171.574219 78.792969 171.449219 78.902344 171.320312 79 L 170.933594 79.300781 L 170.738281 79.453125 L 170.140625 79.882812 L 169.734375 80.15625 L 169.53125 80.296875 L 169.324219 80.425781 L 168.90625 80.6875 L 168.484375 80.9375 C 168.347656 81.019531 168.203125 81.097656 168.058594 81.175781 C 167.914062 81.253906 167.773438 81.335938 167.625 81.40625 L 167.191406 81.632812 L 166.746094 81.839844 C 166.601562 81.910156 166.449219 81.972656 166.300781 82.039062 L 166.074219 82.136719 L 165.847656 82.230469 C 165.546875 82.351562 165.242188 82.464844 164.933594 82.574219 C 164.78125 82.628906 164.628906 82.683594 164.472656 82.734375 L 164.007812 82.878906 C 163.695312 82.96875 163.378906 83.058594 163.0625 83.132812 C 162.746094 83.207031 162.429688 83.273438 162.109375 83.332031 C 161.472656 83.445312 160.824219 83.535156 160.175781 83.546875 "/></g><g style="fill:#000000;fill-opacity:1;"><g transform="translate(63.107793, 135.450071)"><path style="stroke:none" d="M 52.625 -14.703125 C 52.78125 -14.429688 52.796875 -14.144531 52.671875 -13.84375 C 52.554688 -13.550781 52.363281 -13.347656 52.09375 -13.234375 C 50.914062 -12.679688 49.34375 -12.21875 47.375 -11.84375 C 45.40625 -11.46875 43.140625 -11.101562 40.578125 -10.75 C 39.984375 -8.070312 39.367188 -5.195312 38.734375 -2.125 C 38.109375 0.945312 37.507812 4.046875 36.9375 7.171875 C 36.375 10.304688 35.84375 13.316406 35.34375 16.203125 C 34.851562 19.097656 34.441406 21.75 34.109375 24.15625 C 33.773438 26.5625 33.507812 28.570312 33.3125 30.1875 C 33.625 30.019531 33.9375 30 34.25 30.125 C 34.53125 30.238281 34.738281 30.429688 34.875 30.703125 C 35.007812 30.984375 35.039062 31.28125 34.96875 31.59375 C 34.53125 32.78125 34.125 33.726562 33.75 34.4375 C 33.375 35.144531 32.910156 35.5 32.359375 35.5 C 32.242188 35.5 32.109375 35.476562 31.953125 35.4375 C 31.359375 35.238281 31.007812 34.707031 30.90625 33.84375 C 30.8125 32.976562 30.90625 31.304688 31.1875 28.828125 C 31.539062 25.710938 32.148438 21.535156 33.015625 16.296875 C 33.609375 12.953125 34.238281 9.488281 34.90625 5.90625 C 35.570312 2.320312 36.238281 -1.082031 36.90625 -4.3125 C 33.5625 1.789062 30.21875 6.898438 26.875 11.015625 C 23.53125 15.128906 20.335938 18.082031 17.296875 19.875 C 14.265625 21.664062 11.53125 22.109375 9.09375 21.203125 C 6.851562 20.378906 5.21875 18.5 4.1875 15.5625 C 3.164062 12.625 2.78125 8.832031 3.03125 4.1875 C 3.289062 -0.457031 4.226562 -5.734375 5.84375 -11.640625 C 6.507812 -14.160156 7.421875 -16.925781 8.578125 -19.9375 C 9.742188 -22.945312 11.066406 -26.035156 12.546875 -29.203125 C 14.023438 -32.367188 15.628906 -35.488281 17.359375 -38.5625 C 19.097656 -41.632812 20.878906 -44.5 22.703125 -47.15625 C 24.535156 -49.8125 26.359375 -52.109375 28.171875 -54.046875 C 29.984375 -55.972656 31.785156 -57.25 33.578125 -57.875 C 35.367188 -58.507812 36.953125 -58.453125 38.328125 -57.703125 C 38.992188 -57.347656 39.660156 -56.664062 40.328125 -55.65625 C 41.003906 -54.65625 41.507812 -53.171875 41.84375 -51.203125 C 42.175781 -49.234375 42.1875 -46.613281 41.875 -43.34375 C 41.5625 -40.082031 40.734375 -35.988281 39.390625 -31.0625 C 39.316406 -30.75 39.140625 -30.515625 38.859375 -30.359375 C 38.585938 -30.203125 38.3125 -30.160156 38.03125 -30.234375 C 37.71875 -30.316406 37.484375 -30.492188 37.328125 -30.765625 C 37.171875 -31.046875 37.128906 -31.34375 37.203125 -31.65625 C 38.585938 -36.769531 39.40625 -41.019531 39.65625 -44.40625 C 39.914062 -47.800781 39.796875 -50.410156 39.296875 -52.234375 C 38.804688 -54.066406 38.109375 -55.222656 37.203125 -55.703125 C 36.335938 -56.210938 35.242188 -56.171875 33.921875 -55.578125 C 32.609375 -54.984375 31.242188 -53.957031 29.828125 -52.5 C 28.054688 -50.613281 26.273438 -48.367188 24.484375 -45.765625 C 22.691406 -43.171875 20.957031 -40.375 19.28125 -37.375 C 17.613281 -34.382812 16.050781 -31.332031 14.59375 -28.21875 C 13.132812 -25.113281 11.84375 -22.09375 10.71875 -19.15625 C 9.59375 -16.226562 8.695312 -13.523438 8.03125 -11.046875 C 5.664062 -2.335938 4.78125 4.785156 5.375 10.328125 C 5.613281 12.691406 6.125 14.628906 6.90625 16.140625 C 7.695312 17.660156 8.703125 18.640625 9.921875 19.078125 C 11.378906 19.628906 13.140625 19.410156 15.203125 18.421875 C 17.273438 17.441406 19.492188 15.75 21.859375 13.34375 C 24.410156 10.75 27.003906 7.429688 29.640625 3.390625 C 32.285156 -0.640625 34.90625 -5.234375 37.5 -10.390625 C 36.320312 -10.273438 35.09375 -10.144531 33.8125 -10 C 32.53125 -9.863281 31.238281 -9.738281 29.9375 -9.625 C 27.8125 -9.382812 25.65625 -9.144531 23.46875 -8.90625 C 21.289062 -8.675781 19.15625 -8.425781 17.0625 -8.15625 C 17.03125 -8.15625 16.992188 -8.15625 16.953125 -8.15625 C 16.285156 -8.15625 15.910156 -8.488281 15.828125 -9.15625 C 15.785156 -9.46875 15.851562 -9.75 16.03125 -10 C 16.207031 -10.257812 16.457031 -10.410156 16.78125 -10.453125 C 18.863281 -10.734375 20.992188 -10.976562 23.171875 -11.1875 C 25.359375 -11.40625 27.535156 -11.632812 29.703125 -11.875 C 31.242188 -12.03125 32.769531 -12.1875 34.28125 -12.34375 C 35.800781 -12.5 37.269531 -12.65625 38.6875 -12.8125 C 38.726562 -12.894531 38.753906 -12.960938 38.765625 -13.015625 C 38.785156 -13.078125 38.816406 -13.148438 38.859375 -13.234375 C 39.140625 -13.859375 39.613281 -14.054688 40.28125 -13.828125 C 40.59375 -13.703125 40.828125 -13.460938 40.984375 -13.109375 C 43.234375 -13.421875 45.242188 -13.742188 47.015625 -14.078125 C 48.785156 -14.421875 50.160156 -14.828125 51.140625 -15.296875 C 51.421875 -15.410156 51.707031 -15.410156 52 -15.296875 C 52.300781 -15.179688 52.507812 -14.984375 52.625 -14.703125 Z M 52.625 -14.703125 "/></g></g><g style="fill:#000000;fill-opacity:1;"><g transform="translate(119.037421, 135.450071)"><path style="stroke:none" d="M 23.5625 -12.75 C 23.800781 -12.59375 23.957031 -12.359375 24.03125 -12.046875 C 24.113281 -11.734375 24.078125 -11.457031 23.921875 -11.21875 C 23.609375 -10.707031 23.101562 -9.921875 22.40625 -8.859375 C 21.71875 -7.796875 20.890625 -6.625 19.921875 -5.34375 C 18.960938 -4.0625 17.941406 -2.820312 16.859375 -1.625 C 15.773438 -0.425781 14.703125 0.566406 13.640625 1.359375 C 12.578125 2.148438 11.59375 2.546875 10.6875 2.546875 C 10.375 2.546875 10.097656 2.484375 9.859375 2.359375 C 8.878906 2.003906 8.257812 1.097656 8 -0.359375 C 7.75 -1.816406 7.835938 -3.921875 8.265625 -6.671875 C 7.753906 -6.003906 7.203125 -5.316406 6.609375 -4.609375 C 6.023438 -3.898438 5.394531 -3.25 4.71875 -2.65625 C 3.695312 -1.789062 2.832031 -1.4375 2.125 -1.59375 C 1.414062 -1.75 0.941406 -1.945312 0.703125 -2.1875 C -0.00390625 -2.78125 -0.445312 -3.675781 -0.625 -4.875 C -0.800781 -6.070312 -0.738281 -7.410156 -0.4375 -8.890625 C -0.144531 -10.367188 0.394531 -11.796875 1.1875 -13.171875 C 1.34375 -13.441406 1.578125 -13.617188 1.890625 -13.703125 C 2.203125 -13.785156 2.5 -13.742188 2.78125 -13.578125 C 3.050781 -13.421875 3.222656 -13.195312 3.296875 -12.90625 C 3.378906 -12.613281 3.34375 -12.328125 3.1875 -12.046875 C 2.476562 -10.867188 2.003906 -9.695312 1.765625 -8.53125 C 1.535156 -7.375 1.46875 -6.378906 1.5625 -5.546875 C 1.664062 -4.722656 1.851562 -4.191406 2.125 -3.953125 C 2.28125 -3.835938 2.484375 -3.867188 2.734375 -4.046875 C 2.992188 -4.222656 3.164062 -4.332031 3.25 -4.375 C 4 -5.039062 4.707031 -5.804688 5.375 -6.671875 C 6.039062 -7.535156 6.613281 -8.320312 7.09375 -9.03125 C 7.71875 -9.894531 8.234375 -10.535156 8.640625 -10.953125 C 9.054688 -11.367188 9.539062 -11.457031 10.09375 -11.21875 C 10.644531 -11.019531 10.921875 -10.585938 10.921875 -9.921875 C 10.921875 -9.253906 10.820312 -8.347656 10.625 -7.203125 C 10.238281 -4.921875 10.0625 -3.257812 10.09375 -2.21875 C 10.132812 -1.175781 10.234375 -0.503906 10.390625 -0.203125 C 10.546875 0.0859375 10.644531 0.234375 10.6875 0.234375 C 11.164062 0.429688 12.46875 -0.5 14.59375 -2.5625 C 16.71875 -4.632812 19.175781 -7.914062 21.96875 -12.40625 C 22.125 -12.675781 22.359375 -12.84375 22.671875 -12.90625 C 22.992188 -12.96875 23.289062 -12.914062 23.5625 -12.75 Z M 23.5625 -12.75 "/></g></g><g style="fill:#000000;fill-opacity:1;"><g transform="translate(141.362145, 135.450071)"><path style="stroke:none" d="M 17.3125 -13.46875 C 17.582031 -13.3125 17.742188 -13.070312 17.796875 -12.75 C 17.859375 -12.4375 17.8125 -12.144531 17.65625 -11.875 C 16.90625 -10.6875 15.957031 -9.363281 14.8125 -7.90625 C 13.675781 -6.457031 12.4375 -5.070312 11.09375 -3.75 C 9.757812 -2.425781 8.429688 -1.332031 7.109375 -0.46875 C 5.796875 0.394531 4.585938 0.828125 3.484375 0.828125 C 3.015625 0.828125 2.601562 0.75 2.25 0.59375 C 0.90625 0 0.164062 -1.425781 0.03125 -3.6875 C -0.101562 -5.957031 0.359375 -9.15625 1.421875 -13.28125 C 1.492188 -13.601562 1.664062 -13.84375 1.9375 -14 C 2.21875 -14.15625 2.5 -14.191406 2.78125 -14.109375 C 3.09375 -14.035156 3.328125 -13.859375 3.484375 -13.578125 C 3.640625 -13.304688 3.679688 -13.03125 3.609375 -12.75 C 2.972656 -10.238281 2.578125 -8.242188 2.421875 -6.765625 C 2.265625 -5.285156 2.234375 -4.171875 2.328125 -3.421875 C 2.429688 -2.671875 2.582031 -2.164062 2.78125 -1.90625 C 2.976562 -1.65625 3.09375 -1.53125 3.125 -1.53125 C 3.632812 -1.300781 4.378906 -1.46875 5.359375 -2.03125 C 6.347656 -2.601562 7.453125 -3.453125 8.671875 -4.578125 C 9.898438 -5.703125 11.132812 -7 12.375 -8.46875 C 13.613281 -9.945312 14.722656 -11.492188 15.703125 -13.109375 C 15.898438 -13.390625 16.144531 -13.554688 16.4375 -13.609375 C 16.738281 -13.671875 17.03125 -13.625 17.3125 -13.46875 Z M 3.359375 -18.1875 C 2.578125 -18.226562 2.175781 -18.453125 2.15625 -18.859375 C 2.132812 -19.273438 2.3125 -19.703125 2.6875 -20.140625 C 3.0625 -20.578125 3.445312 -20.875 3.84375 -21.03125 C 4.46875 -21.226562 4.925781 -21.1875 5.21875 -20.90625 C 5.519531 -20.632812 5.660156 -20.28125 5.640625 -19.84375 C 5.617188 -19.40625 5.421875 -19.007812 5.046875 -18.65625 C 4.671875 -18.300781 4.109375 -18.144531 3.359375 -18.1875 Z M 3.359375 -18.1875 "/></g></g><g style="fill:#000000;fill-opacity:1;"><g transform="translate(157.485608, 135.450071)"><path style="stroke:none" d="M 25.21875 -49.3125 C 25.332031 -49.238281 25.445312 -49.050781 25.5625 -48.75 C 25.6875 -48.457031 25.75 -47.945312 25.75 -47.21875 C 25.75 -46.488281 25.59375 -45.425781 25.28125 -44.03125 C 24.96875 -42.632812 24.4375 -40.773438 23.6875 -38.453125 C 23.5625 -38.140625 23.453125 -37.8125 23.359375 -37.46875 C 23.265625 -37.132812 23.15625 -36.8125 23.03125 -36.5 C 22.125 -33.664062 21.019531 -30.484375 19.71875 -26.953125 C 18.425781 -23.429688 16.675781 -19.585938 14.46875 -15.421875 C 13.957031 -12.859375 13.425781 -10.128906 12.875 -7.234375 C 12.320312 -4.335938 11.769531 -1.273438 11.21875 1.953125 C 10.507812 6.316406 9.945312 9.914062 9.53125 12.75 C 9.125 15.59375 8.84375 17.847656 8.6875 19.515625 C 8.53125 21.191406 8.429688 22.460938 8.390625 23.328125 C 8.703125 23.210938 9.015625 23.210938 9.328125 23.328125 C 9.609375 23.484375 9.796875 23.707031 9.890625 24 C 9.992188 24.300781 9.984375 24.585938 9.859375 24.859375 C 9.660156 25.296875 9.382812 25.78125 9.03125 26.3125 C 8.675781 26.84375 8.242188 27.109375 7.734375 27.109375 C 7.578125 27.109375 7.421875 27.085938 7.265625 27.046875 C 6.867188 26.929688 6.570312 26.644531 6.375 26.1875 C 6.175781 25.738281 6.085938 24.875 6.109375 23.59375 C 6.128906 22.3125 6.296875 20.375 6.609375 17.78125 C 7.085938 13.6875 7.878906 8.289062 8.984375 1.59375 C 9.609375 -2.0625 10.253906 -5.625 10.921875 -9.09375 C 10.335938 -8.144531 9.71875 -7.175781 9.0625 -6.1875 C 8.414062 -5.207031 7.738281 -4.207031 7.03125 -3.1875 C 5.96875 -1.613281 5 -0.503906 4.125 0.140625 C 3.257812 0.796875 2.503906 1.140625 1.859375 1.171875 C 1.210938 1.210938 0.671875 1.117188 0.234375 0.890625 C -0.628906 0.378906 -1.175781 -0.523438 -1.40625 -1.828125 C -1.644531 -3.128906 -1.617188 -4.597656 -1.328125 -6.234375 C -1.035156 -7.867188 -0.550781 -9.429688 0.125 -10.921875 C 1.5 -13.835938 3.082031 -15.894531 4.875 -17.09375 C 6.664062 -18.300781 8.191406 -18.726562 9.453125 -18.375 C 9.722656 -18.25 10.15625 -17.976562 10.75 -17.5625 C 11.34375 -17.15625 11.695312 -16.378906 11.8125 -15.234375 C 12.007812 -15.546875 12.1875 -15.863281 12.34375 -16.1875 C 13.800781 -22.957031 15.238281 -28.789062 16.65625 -33.6875 C 18.070312 -38.59375 19.398438 -42.414062 20.640625 -45.15625 C 21.878906 -47.894531 22.929688 -49.398438 23.796875 -49.671875 C 24.347656 -49.867188 24.820312 -49.75 25.21875 -49.3125 Z M 5.203125 -4.484375 C 6.140625 -5.867188 7.03125 -7.226562 7.875 -8.5625 C 8.726562 -9.90625 9.53125 -11.222656 10.28125 -12.515625 C 9.6875 -12.710938 9.445312 -13.109375 9.5625 -13.703125 C 9.5625 -13.972656 9.550781 -14.414062 9.53125 -15.03125 C 9.519531 -15.644531 9.273438 -16.03125 8.796875 -16.1875 C 8.722656 -16.21875 8.609375 -16.234375 8.453125 -16.234375 C 7.703125 -16.234375 6.722656 -15.722656 5.515625 -14.703125 C 4.316406 -13.679688 3.207031 -12.085938 2.1875 -9.921875 C 1.519531 -8.503906 1.085938 -7.15625 0.890625 -5.875 C 0.691406 -4.59375 0.648438 -3.519531 0.765625 -2.65625 C 0.878906 -1.789062 1.097656 -1.28125 1.421875 -1.125 C 1.535156 -1.039062 1.90625 -1.175781 2.53125 -1.53125 C 3.164062 -1.882812 4.054688 -2.867188 5.203125 -4.484375 Z M 21.5 -39.15625 C 21.96875 -40.53125 22.328125 -41.71875 22.578125 -42.71875 C 22.835938 -43.726562 23.050781 -44.585938 23.21875 -45.296875 C 22.46875 -43.765625 21.5625 -41.441406 20.5 -38.328125 C 19.4375 -35.222656 18.273438 -31.226562 17.015625 -26.34375 C 17.835938 -28.351562 18.550781 -30.257812 19.15625 -32.0625 C 19.769531 -33.875 20.332031 -35.570312 20.84375 -37.15625 C 20.96875 -37.507812 21.078125 -37.851562 21.171875 -38.1875 C 21.273438 -38.519531 21.382812 -38.84375 21.5 -39.15625 Z M 21.5 -39.15625 "/></g></g><g style="fill:#000000;fill-opacity:1;"><g transform="translate(177.152646, 135.450071)"><path style="stroke:none" d="M 19.96875 -13.171875 C 20.238281 -13.015625 20.394531 -12.773438 20.4375 -12.453125 C 20.476562 -12.140625 20.421875 -11.867188 20.265625 -11.640625 C 17.941406 -8.410156 15.8125 -5.738281 13.875 -3.625 C 11.945312 -1.519531 10.019531 0.21875 8.09375 1.59375 C 6.632812 2.613281 5.195312 3.125 3.78125 3.125 C 2.675781 3.125 1.710938 2.832031 0.890625 2.25 C 0.335938 1.851562 -0.203125 1.148438 -0.734375 0.140625 C -1.265625 -0.859375 -1.550781 -2.3125 -1.59375 -4.21875 C -1.632812 -6.132812 -1.160156 -8.644531 -0.171875 -11.75 C -0.171875 -11.75 -0.171875 -11.769531 -0.171875 -11.8125 C 1.003906 -15.59375 2.390625 -18.476562 3.984375 -20.46875 C 5.578125 -22.457031 6.945312 -23.46875 8.09375 -23.5 C 9 -23.539062 9.585938 -23.148438 9.859375 -22.328125 C 10.296875 -21.179688 9.785156 -19.554688 8.328125 -17.453125 C 6.867188 -15.347656 4.722656 -13.113281 1.890625 -10.75 C 1.023438 -7.988281 0.609375 -5.832031 0.640625 -4.28125 C 0.679688 -2.726562 0.898438 -1.601562 1.296875 -0.90625 C 1.691406 -0.21875 2.007812 0.21875 2.25 0.40625 C 3.425781 1.28125 4.941406 1.046875 6.796875 -0.296875 C 8.609375 -1.554688 10.4375 -3.195312 12.28125 -5.21875 C 14.132812 -7.25 16.164062 -9.820312 18.375 -12.9375 C 18.5625 -13.164062 18.8125 -13.3125 19.125 -13.375 C 19.445312 -13.4375 19.726562 -13.367188 19.96875 -13.171875 Z M 7.671875 -21.03125 C 7.242188 -20.75 6.65625 -20.164062 5.90625 -19.28125 C 5.15625 -18.394531 4.390625 -17.109375 3.609375 -15.421875 C 5.023438 -16.796875 6.023438 -17.960938 6.609375 -18.921875 C 7.203125 -19.890625 7.554688 -20.59375 7.671875 -21.03125 Z M 7.671875 -21.03125 "/></g></g><g style="fill:#000000;fill-opacity:1;"><g transform="translate(195.520368, 135.450071)"><path style="stroke:none" d="M 25.21875 -49.3125 C 25.332031 -49.238281 25.445312 -49.050781 25.5625 -48.75 C 25.6875 -48.457031 25.75 -47.945312 25.75 -47.21875 C 25.75 -46.488281 25.59375 -45.425781 25.28125 -44.03125 C 24.96875 -42.632812 24.4375 -40.773438 23.6875 -38.453125 C 23.5625 -38.140625 23.453125 -37.8125 23.359375 -37.46875 C 23.265625 -37.132812 23.15625 -36.8125 23.03125 -36.5 C 22.125 -33.664062 21.019531 -30.484375 19.71875 -26.953125 C 18.425781 -23.429688 16.675781 -19.585938 14.46875 -15.421875 C 13.957031 -12.859375 13.425781 -10.128906 12.875 -7.234375 C 12.320312 -4.335938 11.769531 -1.273438 11.21875 1.953125 C 10.507812 6.316406 9.945312 9.914062 9.53125 12.75 C 9.125 15.59375 8.84375 17.847656 8.6875 19.515625 C 8.53125 21.191406 8.429688 22.460938 8.390625 23.328125 C 8.703125 23.210938 9.015625 23.210938 9.328125 23.328125 C 9.609375 23.484375 9.796875 23.707031 9.890625 24 C 9.992188 24.300781 9.984375 24.585938 9.859375 24.859375 C 9.660156 25.296875 9.382812 25.78125 9.03125 26.3125 C 8.675781 26.84375 8.242188 27.109375 7.734375 27.109375 C 7.578125 27.109375 7.421875 27.085938 7.265625 27.046875 C 6.867188 26.929688 6.570312 26.644531 6.375 26.1875 C 6.175781 25.738281 6.085938 24.875 6.109375 23.59375 C 6.128906 22.3125 6.296875 20.375 6.609375 17.78125 C 7.085938 13.6875 7.878906 8.289062 8.984375 1.59375 C 9.609375 -2.0625 10.253906 -5.625 10.921875 -9.09375 C 10.335938 -8.144531 9.71875 -7.175781 9.0625 -6.1875 C 8.414062 -5.207031 7.738281 -4.207031 7.03125 -3.1875 C 5.96875 -1.613281 5 -0.503906 4.125 0.140625 C 3.257812 0.796875 2.503906 1.140625 1.859375 1.171875 C 1.210938 1.210938 0.671875 1.117188 0.234375 0.890625 C -0.628906 0.378906 -1.175781 -0.523438 -1.40625 -1.828125 C -1.644531 -3.128906 -1.617188 -4.597656 -1.328125 -6.234375 C -1.035156 -7.867188 -0.550781 -9.429688 0.125 -10.921875 C 1.5 -13.835938 3.082031 -15.894531 4.875 -17.09375 C 6.664062 -18.300781 8.191406 -18.726562 9.453125 -18.375 C 9.722656 -18.25 10.15625 -17.976562 10.75 -17.5625 C 11.34375 -17.15625 11.695312 -16.378906 11.8125 -15.234375 C 12.007812 -15.546875 12.1875 -15.863281 12.34375 -16.1875 C 13.800781 -22.957031 15.238281 -28.789062 16.65625 -33.6875 C 18.070312 -38.59375 19.398438 -42.414062 20.640625 -45.15625 C 21.878906 -47.894531 22.929688 -49.398438 23.796875 -49.671875 C 24.347656 -49.867188 24.820312 -49.75 25.21875 -49.3125 Z M 5.203125 -4.484375 C 6.140625 -5.867188 7.03125 -7.226562 7.875 -8.5625 C 8.726562 -9.90625 9.53125 -11.222656 10.28125 -12.515625 C 9.6875 -12.710938 9.445312 -13.109375 9.5625 -13.703125 C 9.5625 -13.972656 9.550781 -14.414062 9.53125 -15.03125 C 9.519531 -15.644531 9.273438 -16.03125 8.796875 -16.1875 C 8.722656 -16.21875 8.609375 -16.234375 8.453125 -16.234375 C 7.703125 -16.234375 6.722656 -15.722656 5.515625 -14.703125 C 4.316406 -13.679688 3.207031 -12.085938 2.1875 -9.921875 C 1.519531 -8.503906 1.085938 -7.15625 0.890625 -5.875 C 0.691406 -4.59375 0.648438 -3.519531 0.765625 -2.65625 C 0.878906 -1.789062 1.097656 -1.28125 1.421875 -1.125 C 1.535156 -1.039062 1.90625 -1.175781 2.53125 -1.53125 C 3.164062 -1.882812 4.054688 -2.867188 5.203125 -4.484375 Z M 21.5 -39.15625 C 21.96875 -40.53125 22.328125 -41.71875 22.578125 -42.71875 C 22.835938 -43.726562 23.050781 -44.585938 23.21875 -45.296875 C 22.46875 -43.765625 21.5625 -41.441406 20.5 -38.328125 C 19.4375 -35.222656 18.273438 -31.226562 17.015625 -26.34375 C 17.835938 -28.351562 18.550781 -30.257812 19.15625 -32.0625 C 19.769531 -33.875 20.332031 -35.570312 20.84375 -37.15625 C 20.96875 -37.507812 21.078125 -37.851562 21.171875 -38.1875 C 21.273438 -38.519531 21.382812 -38.84375 21.5 -39.15625 Z M 21.5 -39.15625 "/></g></g><g style="fill:#000000;fill-opacity:1;"><g transform="translate(215.187407, 135.450071)"><path style="stroke:none" d=""/></g></g><g style="fill:#000000;fill-opacity:1;"><g transform="translate(234.500082, 135.450071)"><path style="stroke:none" d="M 20.609375 -12.8125 C 20.890625 -12.695312 21.085938 -12.488281 21.203125 -12.1875 C 21.316406 -11.894531 21.296875 -11.613281 21.140625 -11.34375 C 20.785156 -10.507812 20.289062 -9.1875 19.65625 -7.375 C 19.03125 -5.570312 18.320312 -3.457031 17.53125 -1.03125 C 16.75 1.382812 15.914062 4 15.03125 6.8125 C 14.144531 9.632812 13.25 12.484375 12.34375 15.359375 C 11.164062 19.097656 9.992188 22.816406 8.828125 26.515625 C 7.671875 30.222656 6.597656 33.53125 5.609375 36.4375 C 4.585938 39.550781 3.757812 41.894531 3.125 43.46875 C 2.738281 44.457031 2.363281 45.242188 2 45.828125 C 1.644531 46.421875 1.210938 46.71875 0.703125 46.71875 C 0.628906 46.71875 0.53125 46.71875 0.40625 46.71875 C -0.257812 46.5625 -0.601562 46.078125 -0.625 45.265625 C -0.644531 44.460938 -0.59375 43.53125 -0.46875 42.46875 C -0.425781 42.1875 -0.285156 41.328125 -0.046875 39.890625 C 0.179688 38.453125 0.472656 36.601562 0.828125 34.34375 C 1.179688 32.082031 1.59375 29.53125 2.0625 26.6875 C 2.539062 23.851562 3.046875 20.890625 3.578125 17.796875 C 4.109375 14.710938 4.628906 11.632812 5.140625 8.5625 C 5.648438 5.488281 6.140625 2.578125 6.609375 -0.171875 C 7.085938 -2.929688 7.523438 -5.375 7.921875 -7.5 C 7.328125 -6.707031 6.691406 -5.898438 6.015625 -5.078125 C 5.347656 -4.253906 4.640625 -3.425781 3.890625 -2.59375 C 2.828125 -1.457031 1.929688 -0.847656 1.203125 -0.765625 C 0.484375 -0.691406 -0.09375 -0.789062 -0.53125 -1.0625 C -1.15625 -1.457031 -1.535156 -2.113281 -1.671875 -3.03125 C -1.816406 -3.957031 -1.769531 -5.003906 -1.53125 -6.171875 C -1.300781 -7.335938 -0.945312 -8.46875 -0.46875 -9.5625 C 0.195312 -11.0625 1.109375 -12.457031 2.265625 -13.75 C 3.429688 -15.050781 4.832031 -16.007812 6.46875 -16.625 C 8.101562 -17.238281 9.941406 -17.289062 11.984375 -16.78125 C 12.304688 -16.695312 12.546875 -16.523438 12.703125 -16.265625 C 12.859375 -16.015625 12.894531 -15.734375 12.8125 -15.421875 C 12.738281 -15.097656 12.570312 -14.859375 12.3125 -14.703125 C 12.0625 -14.546875 11.773438 -14.507812 11.453125 -14.59375 C 9.804688 -15.019531 8.378906 -14.988281 7.171875 -14.5 C 5.972656 -14.007812 4.96875 -13.328125 4.15625 -12.453125 C 3.351562 -11.585938 2.734375 -10.785156 2.296875 -10.046875 C 1.359375 -8.429688 0.800781 -6.929688 0.625 -5.546875 C 0.445312 -4.171875 0.472656 -3.304688 0.703125 -2.953125 C 0.785156 -2.992188 0.953125 -3.09375 1.203125 -3.25 C 1.460938 -3.40625 1.8125 -3.71875 2.25 -4.1875 C 3.382812 -5.414062 4.425781 -6.648438 5.375 -7.890625 C 6.320312 -9.128906 7.148438 -10.238281 7.859375 -11.21875 C 8.085938 -11.53125 8.300781 -11.820312 8.5 -12.09375 C 8.695312 -12.375 8.875 -12.632812 9.03125 -12.875 C 9.425781 -13.34375 9.898438 -13.441406 10.453125 -13.171875 C 10.960938 -12.929688 11.160156 -12.519531 11.046875 -11.9375 C 10.765625 -10.507812 10.394531 -8.523438 9.9375 -5.984375 C 9.488281 -3.453125 8.988281 -0.582031 8.4375 2.625 C 7.894531 5.832031 7.328125 9.160156 6.734375 12.609375 C 6.140625 16.054688 5.566406 19.453125 5.015625 22.796875 C 4.460938 26.140625 3.957031 29.207031 3.5 32 C 3.050781 34.800781 2.671875 37.109375 2.359375 38.921875 C 3.066406 36.910156 3.863281 34.546875 4.75 31.828125 C 5.632812 29.117188 6.539062 26.285156 7.46875 23.328125 C 8.394531 20.378906 9.289062 17.503906 10.15625 14.703125 C 11.414062 10.648438 12.625 6.789062 13.78125 3.125 C 14.945312 -0.53125 15.992188 -3.71875 16.921875 -6.4375 C 17.847656 -9.15625 18.566406 -11.101562 19.078125 -12.28125 C 19.234375 -12.5625 19.457031 -12.757812 19.75 -12.875 C 20.050781 -12.988281 20.335938 -12.96875 20.609375 -12.8125 Z M 20.609375 -12.8125 "/></g></g><g style="fill:#000000;fill-opacity:1;"><g transform="translate(254.285235, 135.450071)"><path style="stroke:none" d="M 23.5625 -12.75 C 23.800781 -12.59375 23.957031 -12.359375 24.03125 -12.046875 C 24.113281 -11.734375 24.078125 -11.457031 23.921875 -11.21875 C 23.609375 -10.707031 23.101562 -9.921875 22.40625 -8.859375 C 21.71875 -7.796875 20.890625 -6.625 19.921875 -5.34375 C 18.960938 -4.0625 17.941406 -2.820312 16.859375 -1.625 C 15.773438 -0.425781 14.703125 0.566406 13.640625 1.359375 C 12.578125 2.148438 11.59375 2.546875 10.6875 2.546875 C 10.375 2.546875 10.097656 2.484375 9.859375 2.359375 C 8.878906 2.003906 8.257812 1.097656 8 -0.359375 C 7.75 -1.816406 7.835938 -3.921875 8.265625 -6.671875 C 7.753906 -6.003906 7.203125 -5.316406 6.609375 -4.609375 C 6.023438 -3.898438 5.394531 -3.25 4.71875 -2.65625 C 3.695312 -1.789062 2.832031 -1.4375 2.125 -1.59375 C 1.414062 -1.75 0.941406 -1.945312 0.703125 -2.1875 C -0.00390625 -2.78125 -0.445312 -3.675781 -0.625 -4.875 C -0.800781 -6.070312 -0.738281 -7.410156 -0.4375 -8.890625 C -0.144531 -10.367188 0.394531 -11.796875 1.1875 -13.171875 C 1.34375 -13.441406 1.578125 -13.617188 1.890625 -13.703125 C 2.203125 -13.785156 2.5 -13.742188 2.78125 -13.578125 C 3.050781 -13.421875 3.222656 -13.195312 3.296875 -12.90625 C 3.378906 -12.613281 3.34375 -12.328125 3.1875 -12.046875 C 2.476562 -10.867188 2.003906 -9.695312 1.765625 -8.53125 C 1.535156 -7.375 1.46875 -6.378906 1.5625 -5.546875 C 1.664062 -4.722656 1.851562 -4.191406 2.125 -3.953125 C 2.28125 -3.835938 2.484375 -3.867188 2.734375 -4.046875 C 2.992188 -4.222656 3.164062 -4.332031 3.25 -4.375 C 4 -5.039062 4.707031 -5.804688 5.375 -6.671875 C 6.039062 -7.535156 6.613281 -8.320312 7.09375 -9.03125 C 7.71875 -9.894531 8.234375 -10.535156 8.640625 -10.953125 C 9.054688 -11.367188 9.539062 -11.457031 10.09375 -11.21875 C 10.644531 -11.019531 10.921875 -10.585938 10.921875 -9.921875 C 10.921875 -9.253906 10.820312 -8.347656 10.625 -7.203125 C 10.238281 -4.921875 10.0625 -3.257812 10.09375 -2.21875 C 10.132812 -1.175781 10.234375 -0.503906 10.390625 -0.203125 C 10.546875 0.0859375 10.644531 0.234375 10.6875 0.234375 C 11.164062 0.429688 12.46875 -0.5 14.59375 -2.5625 C 16.71875 -4.632812 19.175781 -7.914062 21.96875 -12.40625 C 22.125 -12.675781 22.359375 -12.84375 22.671875 -12.90625 C 22.992188 -12.96875 23.289062 -12.914062 23.5625 -12.75 Z M 23.5625 -12.75 "/></g></g><g style="fill:#000000;fill-opacity:1;"><g transform="translate(276.609969, 135.450071)"><path style="stroke:none" d="M 17.3125 -13.46875 C 17.582031 -13.3125 17.742188 -13.070312 17.796875 -12.75 C 17.859375 -12.4375 17.8125 -12.144531 17.65625 -11.875 C 16.90625 -10.6875 15.957031 -9.363281 14.8125 -7.90625 C 13.675781 -6.457031 12.4375 -5.070312 11.09375 -3.75 C 9.757812 -2.425781 8.429688 -1.332031 7.109375 -0.46875 C 5.796875 0.394531 4.585938 0.828125 3.484375 0.828125 C 3.015625 0.828125 2.601562 0.75 2.25 0.59375 C 0.90625 0 0.164062 -1.425781 0.03125 -3.6875 C -0.101562 -5.957031 0.359375 -9.15625 1.421875 -13.28125 C 1.492188 -13.601562 1.664062 -13.84375 1.9375 -14 C 2.21875 -14.15625 2.5 -14.191406 2.78125 -14.109375 C 3.09375 -14.035156 3.328125 -13.859375 3.484375 -13.578125 C 3.640625 -13.304688 3.679688 -13.03125 3.609375 -12.75 C 2.972656 -10.238281 2.578125 -8.242188 2.421875 -6.765625 C 2.265625 -5.285156 2.234375 -4.171875 2.328125 -3.421875 C 2.429688 -2.671875 2.582031 -2.164062 2.78125 -1.90625 C 2.976562 -1.65625 3.09375 -1.53125 3.125 -1.53125 C 3.632812 -1.300781 4.378906 -1.46875 5.359375 -2.03125 C 6.347656 -2.601562 7.453125 -3.453125 8.671875 -4.578125 C 9.898438 -5.703125 11.132812 -7 12.375 -8.46875 C 13.613281 -9.945312 14.722656 -11.492188 15.703125 -13.109375 C 15.898438 -13.390625 16.144531 -13.554688 16.4375 -13.609375 C 16.738281 -13.671875 17.03125 -13.625 17.3125 -13.46875 Z M 3.359375 -18.1875 C 2.578125 -18.226562 2.175781 -18.453125 2.15625 -18.859375 C 2.132812 -19.273438 2.3125 -19.703125 2.6875 -20.140625 C 3.0625 -20.578125 3.445312 -20.875 3.84375 -21.03125 C 4.46875 -21.226562 4.925781 -21.1875 5.21875 -20.90625 C 5.519531 -20.632812 5.660156 -20.28125 5.640625 -19.84375 C 5.617188 -19.40625 5.421875 -19.007812 5.046875 -18.65625 C 4.671875 -18.300781 4.109375 -18.144531 3.359375 -18.1875 Z M 3.359375 -18.1875 "/></g></g><g style="fill:#000000;fill-opacity:1;"><g transform="translate(292.733432, 135.450071)"><path style="stroke:none" d="M 17.359375 -55.34375 C 17.867188 -54.59375 17.878906 -53.078125 17.390625 -50.796875 C 16.898438 -48.515625 15.882812 -45.6875 14.34375 -42.3125 C 12.8125 -38.945312 10.765625 -35.21875 8.203125 -31.125 C 8.171875 -31.082031 8.132812 -31.039062 8.09375 -31 C 7.070312 -26.832031 6.054688 -22.582031 5.046875 -18.25 C 4.046875 -13.914062 3.09375 -9.660156 2.1875 -5.484375 C 1.28125 -1.316406 0.453125 2.601562 -0.296875 6.28125 C -1.046875 9.96875 -1.6875 13.25 -2.21875 16.125 C -2.75 19 -3.128906 21.300781 -3.359375 23.03125 C -3.328125 23.03125 -3.289062 23.03125 -3.25 23.03125 C -2.9375 23.15625 -2.707031 23.351562 -2.5625 23.625 C -2.425781 23.894531 -2.421875 24.191406 -2.546875 24.515625 C -2.816406 25.265625 -3.097656 25.941406 -3.390625 26.546875 C -3.691406 27.160156 -4.097656 27.46875 -4.609375 27.46875 C -4.722656 27.46875 -4.859375 27.445312 -5.015625 27.40625 C -5.367188 27.289062 -5.625 27.046875 -5.78125 26.671875 C -5.945312 26.296875 -5.96875 25.546875 -5.84375 24.421875 C -5.726562 23.296875 -5.472656 21.570312 -5.078125 19.25 C -4.367188 15 -3.304688 9.445312 -1.890625 2.59375 C -0.867188 -2.207031 0.203125 -7.097656 1.328125 -12.078125 C 2.453125 -17.054688 3.5625 -21.859375 4.65625 -26.484375 C 5.757812 -31.109375 6.828125 -35.3125 7.859375 -39.09375 C 8.054688 -39.84375 8.347656 -40.882812 8.734375 -42.21875 C 9.128906 -43.5625 9.582031 -45 10.09375 -46.53125 C 10.613281 -48.070312 11.1875 -49.550781 11.8125 -50.96875 C 12.4375 -52.382812 13.082031 -53.554688 13.75 -54.484375 C 14.425781 -55.410156 15.097656 -55.929688 15.765625 -56.046875 C 16.441406 -56.171875 16.972656 -55.9375 17.359375 -55.34375 Z M 10.15625 -38.921875 C 12.050781 -42.460938 13.378906 -45.414062 14.140625 -47.78125 C 14.910156 -50.144531 15.351562 -51.859375 15.46875 -52.921875 C 14.914062 -52.128906 14.164062 -50.640625 13.21875 -48.453125 C 12.28125 -46.273438 11.257812 -43.097656 10.15625 -38.921875 Z M 10.15625 -38.921875 "/></g></g><g style="fill:#000000;fill-opacity:1;"><g transform="translate(302.89185, 135.450071)"><path style="stroke:none" d="M 17.359375 -55.34375 C 17.867188 -54.59375 17.878906 -53.078125 17.390625 -50.796875 C 16.898438 -48.515625 15.882812 -45.6875 14.34375 -42.3125 C 12.8125 -38.945312 10.765625 -35.21875 8.203125 -31.125 C 8.171875 -31.082031 8.132812 -31.039062 8.09375 -31 C 7.070312 -26.832031 6.054688 -22.582031 5.046875 -18.25 C 4.046875 -13.914062 3.09375 -9.660156 2.1875 -5.484375 C 1.28125 -1.316406 0.453125 2.601562 -0.296875 6.28125 C -1.046875 9.96875 -1.6875 13.25 -2.21875 16.125 C -2.75 19 -3.128906 21.300781 -3.359375 23.03125 C -3.328125 23.03125 -3.289062 23.03125 -3.25 23.03125 C -2.9375 23.15625 -2.707031 23.351562 -2.5625 23.625 C -2.425781 23.894531 -2.421875 24.191406 -2.546875 24.515625 C -2.816406 25.265625 -3.097656 25.941406 -3.390625 26.546875 C -3.691406 27.160156 -4.097656 27.46875 -4.609375 27.46875 C -4.722656 27.46875 -4.859375 27.445312 -5.015625 27.40625 C -5.367188 27.289062 -5.625 27.046875 -5.78125 26.671875 C -5.945312 26.296875 -5.96875 25.546875 -5.84375 24.421875 C -5.726562 23.296875 -5.472656 21.570312 -5.078125 19.25 C -4.367188 15 -3.304688 9.445312 -1.890625 2.59375 C -0.867188 -2.207031 0.203125 -7.097656 1.328125 -12.078125 C 2.453125 -17.054688 3.5625 -21.859375 4.65625 -26.484375 C 5.757812 -31.109375 6.828125 -35.3125 7.859375 -39.09375 C 8.054688 -39.84375 8.347656 -40.882812 8.734375 -42.21875 C 9.128906 -43.5625 9.582031 -45 10.09375 -46.53125 C 10.613281 -48.070312 11.1875 -49.550781 11.8125 -50.96875 C 12.4375 -52.382812 13.082031 -53.554688 13.75 -54.484375 C 14.425781 -55.410156 15.097656 -55.929688 15.765625 -56.046875 C 16.441406 -56.171875 16.972656 -55.9375 17.359375 -55.34375 Z M 10.15625 -38.921875 C 12.050781 -42.460938 13.378906 -45.414062 14.140625 -47.78125 C 14.910156 -50.144531 15.351562 -51.859375 15.46875 -52.921875 C 14.914062 -52.128906 14.164062 -50.640625 13.21875 -48.453125 C 12.28125 -46.273438 11.257812 -43.097656 10.15625 -38.921875 Z M 10.15625 -38.921875 "/></g></g></g></svg>